<?xml version="1.0" encoding="UTF-8"?>
<!DOCTYPE svg PUBLIC "-//W3C//DTD SVG 1.1//EN" "http://www.w3.org/Graphics/SVG/1.1/DTD/svg11.dtd">
<!-- Creator: CorelDRAW X7 -->
<svg xmlns="http://www.w3.org/2000/svg" xml:space="preserve" width="1136px" height="1080px" version="1.1" style="shape-rendering:geometricPrecision; text-rendering:geometricPrecision; image-rendering:optimizeQuality; fill-rule:evenodd; clip-rule:evenodd"
viewBox="0 0 1136 1080"
 xmlns:xlink="http://www.w3.org/1999/xlink">
 <defs>
  <style type="text/css">
   <![CDATA[
    .fil0 {fill:#144B9C}
    .fil4 {fill:#009B4C}
    .fil6 {fill:white}
    .fil2 {fill:#332C2B;fill-rule:nonzero}
    .fil1 {fill:#FDD100;fill-rule:nonzero}
    .fil3 {fill:#F08519;fill-rule:nonzero}
    .fil5 {fill:#ACCE22;fill-rule:nonzero}
   ]]>
  </style>
 </defs>
 <g id="Layer_x0020_1">
  <metadata id="CorelCorpID_0Corel-Layer"/>
  <g id="_1632984852176">
   <path class="fil0" d="M568 48l522 380 -199 614 -646 0 -199 -614 522 -380zm-150 225c0,0 0,0 0,0l0 0c0,0 0,0 0,0zm277 14c0,0 0,-1 1,-1 0,0 1,-1 1,-1 1,-1 2,-1 3,-1 -2,-5 -3,-12 -2,-18 1,-11 7,-20 14,-21 5,3 8,13 7,24 -1,7 -4,13 -8,16 1,0 1,0 1,0 0,1 0,1 0,1 2,1 3,3 4,4 0,0 1,1 1,1 1,0 2,1 2,1 3,3 5,6 7,9l1 0 0 2c0,0 0,1 0,1l0 0c0,1 1,1 0,3l0 0c0,2 -1,3 -3,5 0,1 0,1 0,1l0 0c-2,1 -3,2 -5,3 0,1 -1,2 -1,2 -1,1 -2,2 -3,2 -1,2 -4,3 -6,3 0,1 1,2 2,3 0,0 1,1 1,1 1,0 2,1 2,1 3,3 6,6 7,9l1 0 0 2c1,1 1,1 1,1 0,1 0,1 0,3l0 0c-1,2 -2,4 -3,6 0,0 -1,0 -1,1l0 0c-1,1 -3,2 -5,3 0,1 -1,1 -1,2 -1,1 -2,1 -3,2 -1,2 -4,3 -6,3 0,1 1,2 1,3 1,0 2,1 2,1 1,1 2,1 2,2 3,2 6,5 7,9l1 -1 1 3c0,0 0,0 0,0 0,1 0,2 0,4l0 0c0,2 -1,4 -3,6 0,0 -1,0 -1,0 -1,2 -3,3 -5,4 0,1 -1,1 -1,2 -1,1 -2,1 -3,2 -2,2 -4,3 -7,4 1,0 1,1 2,2 1,1 1,1 2,1 1,1 1,1 2,2 3,3 6,6 7,10l1 -1 1 3c0,0 0,0 0,0 0,1 0,2 0,4l0 0c0,2 -1,4 -3,6l0 0c0,0 -1,0 -1,0 -1,2 -3,3 -5,4 0,1 -1,2 -2,2 0,1 -1,2 -2,2 -2,2 -5,3 -8,4 1,1 2,2 2,3 1,0 2,1 2,1 1,1 2,1 3,2 3,3 6,6 7,10l1 -1 1 3c0,0 0,0 0,0 0,1 0,2 0,4l0 0c0,2 -2,4 -3,6 -1,0 -1,1 -1,1 -2,1 -3,3 -5,4 -1,0 -1,1 -2,2 -1,1 -2,1 -3,2 -2,2 -5,3 -8,4 1,1 2,2 3,3 0,0 1,1 2,1 0,1 1,1 2,2 4,3 6,6 8,10l1 0 0 2c0,1 0,1 0,1 1,1 1,1 0,4l0 0c0,1 -1,4 -3,6 0,0 0,0 -1,1 -1,1 -3,3 -5,4 -1,0 -1,1 -2,2 -1,1 -1,1 -2,2 -3,2 -6,3 -9,4 1,1 2,2 3,4 0,0 1,0 2,1 1,0 1,1 2,2 4,3 7,6 8,10l1 0 1 2c0,1 0,1 0,1l0 0c0,1 0,2 0,4l0 0c0,2 -2,4 -3,6 -1,1 -1,1 -1,1 -2,2 -4,3 -6,4 0,1 -1,2 -2,2 0,1 -1,2 -2,3 -3,2 -6,3 -9,4 1,1 2,3 2,4 1,0 2,1 3,1 0,1 1,1 2,2 4,3 7,7 8,11l1 0 1 2c0,1 0,1 0,1 0,1 0,1 0,4l0 0c0,2 -1,4 -3,6 -1,1 -1,1 -1,1 -2,2 -4,3 -6,4 -1,1 -1,2 -2,3 -1,1 -2,2 -3,2 -2,2 -6,4 -9,5 1,1 2,2 3,4 1,0 1,1 2,1 1,1 2,2 3,2 4,4 7,8 8,12l1 -1 1 3c0,0 0,0 0,1 0,1 0,1 0,4l0 0c0,2 -2,4 -3,6 -1,1 -1,1 -1,1l0 0c-2,2 -4,3 -6,4 -1,1 -2,2 -2,3 -1,1 -2,2 -3,2 -3,3 -7,4 -11,5 2,2 3,3 4,5 1,1 2,1 2,2 1,0 2,1 3,1 4,4 7,8 9,12l1 0 0 3c0,0 0,0 1,0 0,1 0,2 0,4l0 1c-1,1 -2,4 -4,6 0,0 -1,1 -1,1l0 0c-2,2 -4,3 -6,4 -1,1 -1,2 -2,3 -1,1 -2,2 -3,3 -4,3 -10,5 -17,5l-1 8c-4,26 -20,38 -57,30 0,1 0,3 0,4l0 0 0 0c0,2 -1,5 -2,8 0,0 -1,1 -2,2 2,2 2,5 2,7l0 0 0 0c0,3 -1,6 -2,8 0,1 -1,2 -2,3 2,2 2,5 2,7l0 0 0 0c0,2 -1,5 -2,8 0,1 -1,1 -1,2 1,2 1,5 1,7l0 0 0 0c0,3 0,6 -2,8 -1,3 -3,5 -6,5l0 0 -12 0 0 0c-3,0 -5,-2 -6,-5 -2,-2 -2,-5 -2,-8l0 0 0 0c0,-2 0,-5 1,-7 0,-1 -1,-1 -1,-2 -1,-3 -2,-6 -2,-8l0 0 0 0c0,-2 0,-5 2,-7 -1,-1 -2,-2 -2,-3 -1,-2 -2,-5 -2,-8l0 0 0 0c0,-2 0,-5 2,-7 -1,-1 -2,-2 -2,-2 -1,-3 -2,-6 -2,-8l0 0 0 0c0,-1 0,-3 0,-4 -37,8 -53,-4 -57,-30l-3 -18 -4 -2c-1,0 -2,0 -3,0 -2,0 -3,0 -4,0l0 0c-7,-1 -15,-4 -23,-9 0,0 0,0 0,0 0,0 0,0 0,0 0,0 0,0 0,0l0 0 0 0c0,0 0,0 0,0 0,0 0,0 0,0l0 0 0 0 0 0 0 0 0 0 0 0c-3,-2 -6,-4 -9,-7 -7,-6 -12,-12 -13,-18l-1 -2c1,0 1,0 2,0 1,-1 3,-1 4,-1 1,0 3,0 4,0 12,1 24,8 33,15 6,5 11,11 13,16l-7 -43 -4 -3c-1,1 -2,0 -3,0 -1,0 -3,0 -4,0 -6,-1 -14,-4 -22,-9l0 0 0 0 0 0c-1,-1 -3,-2 -4,-3l0 0c-2,-1 -3,-3 -4,-4 -7,-6 -12,-12 -13,-18l-1 -2 2 0c2,0 3,0 4,-1 1,0 3,1 4,1 7,1 15,4 24,9l0 0 0 0 0 0c1,1 3,2 4,3 1,1 3,2 4,3l0 0c6,5 10,10 12,15l-6 -43 -5 -2c-1,0 -2,0 -3,0 -1,0 -2,-1 -4,-1 -6,-1 -13,-4 -21,-9l0 0 0 0 0 0c-1,-1 -3,-2 -4,-3l0 0c-1,-1 -3,-2 -4,-4 -7,-6 -11,-12 -12,-18l0 -2 2 0 0 0c1,0 2,0 3,0 1,0 3,0 4,0l0 0c7,1 15,4 23,10l0 0c0,0 0,0 0,0l0 0c1,1 3,2 4,3 1,1 3,2 4,3 5,5 9,10 11,15l-6 -43 -5 -3c-1,0 -2,0 -3,0 -1,0 -2,0 -3,-1 -7,-1 -14,-4 -21,-9l0 0 0 0 0 0c-1,-1 -2,-2 -4,-3 -1,-1 -2,-3 -4,-4 -6,-6 -10,-12 -11,-17l0 -2 2 -1c1,0 2,0 3,0 1,0 3,0 4,1 7,1 15,4 22,9l0 0 0 0 0 0c2,1 3,2 4,3 1,1 3,2 4,4 5,4 9,10 10,14l-5 -35 0 0 0 -1 -1 -7 0 0 -5 -2c0,0 0,0 0,0l0 0c-1,0 -2,0 -3,-1 -1,0 -2,0 -3,0 -6,-2 -13,-5 -19,-10l0 0 -1 0 0 0c-1,-1 -2,-2 -4,-3 -1,-1 -2,-3 -3,-4 -6,-6 -10,-12 -11,-17l0 -2 2 0c1,-1 2,-1 3,-1 2,1 3,1 4,1 6,1 14,5 21,10l0 0c0,0 0,0 0,0l0 0c0,0 0,0 0,0l0 0 0 0c0,0 0,0 0,0l0 0 0 0c0,0 0,0 0,0l0 0c0,0 0,0 0,0l0 0c0,0 0,0 0,0l0 0c2,1 3,2 4,3 1,1 2,2 4,3 5,5 8,10 10,15l-7 -43 0 0 -5 -3c-1,0 -2,0 -3,0 -1,0 -2,-1 -3,-1 -8,-2 -16,-7 -22,-13 -1,-1 -3,-2 -4,-4l0 0c-5,-5 -9,-11 -10,-19l2 0c1,0 2,0 4,0 1,0 2,0 3,0 6,2 14,5 21,11l0 0 0 0 0 0c1,1 2,2 3,3 1,1 2,2 3,3 5,5 8,10 10,14l-7 -42 0 -1 -5 -3c0,0 -1,0 -2,0l0 0c-8,-1 -15,-6 -21,-11l0 0 0 0 0 0c-3,-2 -5,-4 -7,-7 -5,-5 -9,-11 -10,-19 3,0 6,0 9,1 9,2 17,7 23,14 5,4 10,10 12,17l-6 -43 -1 0 -4 -3c-1,0 -2,0 -3,-1 -7,-1 -15,-6 -20,-11 -3,-2 -5,-4 -7,-7 -5,-5 -8,-11 -8,-19 1,0 3,1 5,1 1,0 2,0 3,0 6,2 13,6 19,11l0 0c1,1 2,2 3,3 1,1 2,2 3,3 4,5 7,10 8,15l-4 -32c-6,-7 -9,-17 -10,-25l0 0c0,0 0,0 0,0l0 0c-1,-12 -1,-23 6,-32 11,8 14,22 15,34 0,2 0,3 0,5 0,7 -2,13 -4,18l6 37c0,0 0,-1 0,-2 0,-1 0,-2 0,-3 2,-5 4,-11 8,-16l0 0 0 0c1,-2 2,-3 3,-4 1,-1 2,-2 3,-3 5,-5 10,-9 15,-9l2 -1 0 2c0,1 0,2 0,3 0,1 0,2 0,3 -2,10 -9,19 -9,19 -1,1 -1,2 -2,3 -1,1 -2,2 -3,3 -4,5 -9,8 -13,9l-2 3 -1 2 6 42c0,-1 0,-1 1,-2 0,-1 0,-2 0,-3 2,-5 4,-11 9,-17l0 0c0,0 0,0 0,0l0 0c1,-1 1,-2 2,-3 1,-1 2,-2 3,-3 6,-6 11,-9 16,-10l1 0 1 2 0 0 0 0c0,1 0,2 0,3 0,1 0,2 -1,3 -1,6 -4,13 -8,19l0 0c-1,2 -2,3 -3,4 -1,1 -2,2 -3,3 -4,4 -9,8 -13,9l-3 3 6 42c0,-1 0,-2 1,-3 1,-5 4,-12 9,-18l0 0 0 0c1,-1 2,-2 3,-4 1,-1 2,-2 3,-3 6,-5 12,-9 16,-9l2 0 0 2 0 0c1,1 1,2 1,3 -1,1 -1,2 -1,3l0 0c-1,6 -5,13 -10,20l0 0 0 0 0 0c-1,1 -2,2 -3,3l0 0c-1,1 -1,2 -2,3 -5,5 -10,9 -15,10l-2 3 0 0 6 41c0,-1 0,-2 0,-2 2,-6 5,-13 10,-19l0 0 0 0 0 0c1,-1 3,-3 4,-4 1,-1 2,-2 3,-3 6,-6 12,-9 17,-10l2 0 0 2 0 0 0 0c0,1 0,2 0,4 0,1 0,2 0,3 -2,6 -6,14 -11,20l0 0 0 1 0 0c-1,1 -2,2 -3,3 -1,1 -2,2 -3,3 -5,5 -11,8 -15,10l-3 2 6 41c1,-1 1,-1 1,-2 3,-9 8,-17 14,-23 2,-1 3,-2 4,-4 6,-5 13,-9 18,-9l2 0 0 2c0,1 0,2 0,3 0,2 -1,3 -1,4 -1,6 -5,14 -11,21l0 0 0 0 0 0c-1,1 -3,3 -4,4 -1,1 -2,2 -3,3 -5,5 -11,8 -16,10l-2 2 6 40c0,-1 0,-1 0,-2 2,-6 7,-13 12,-19l0 0 0 0c1,-2 3,-3 4,-4 1,-2 3,-3 4,-4 7,-6 13,-9 19,-9l2 -1 0 3c0,1 0,2 0,3 -1,1 -1,3 -1,4l0 0c-2,7 -6,14 -13,22l0 0 0 0 0 0c-1,1 -2,2 -3,3 -1,2 -2,3 -4,4 -6,5 -12,8 -17,9l-1 2 6 40c0,-1 0,-1 0,-1 2,-7 7,-14 13,-21 0,0 0,0 0,0l0 0c1,-1 2,-2 4,-4 1,-1 2,-2 4,-3 7,-6 14,-10 19,-10l2 0 1 2c0,0 0,0 0,0 0,1 -1,3 -1,4 0,1 0,3 -1,4 -2,7 -6,15 -13,22l0 0c0,0 1,-1 0,0 -1,2 -2,3 -4,4 -1,1 -2,2 -3,3 -7,6 -13,9 -18,10l-1 1 5 40c2,-4 4,-9 7,-13 1,-2 2,-3 4,-5 6,-8 15,-16 25,-19 2,-2 5,-2 8,-2 1,-1 1,-2 2,-3 -1,-1 -2,-2 -2,-3l0 0c-2,-2 -3,-6 -3,-9l0 0 0 0c0,-2 1,-5 3,-8 -1,-1 -2,-1 -2,-2 -2,-3 -3,-6 -3,-9l0 0 0 0c0,-3 1,-6 2,-9 0,0 -1,-1 -2,-2 -1,-3 -2,-6 -2,-9l0 0 0 0c0,-3 1,-6 2,-9 -1,-1 -1,-1 -2,-2 -2,-3 -3,-6 -3,-9l0 0 0 0c0,-3 1,-7 3,-9 -1,-1 -1,-2 -2,-3 -2,-3 -3,-6 -3,-9l0 0 0 0c0,-3 1,-6 3,-9 -1,-1 -2,-2 -2,-3 -2,-2 -3,-6 -3,-9l0 0 0 0c0,-3 1,-7 3,-9 -1,-1 -2,-2 -3,-3 -2,-3 -3,-6 -3,-9l0 0 0 0c0,-3 1,-7 3,-10 0,0 0,0 0,0 -1,0 -1,-1 -2,-2 -2,-3 -3,-7 -3,-10l0 0 0 0c0,-3 1,-7 3,-9 0,0 0,-1 0,-1 -1,0 -2,-1 -2,-2 -2,-3 -4,-7 -4,-10l0 0 0 0c0,-3 2,-7 4,-10 0,0 0,0 0,0 -1,-1 -2,-2 -3,-3 -2,-2 -3,-6 -3,-9l0 0 0 0c0,-4 1,-7 3,-10 0,0 0,0 0,0 -1,-1 -2,-2 -2,-3 -3,-3 -4,-7 -4,-10l0 0 0 0c0,-3 1,-7 4,-10 0,0 0,0 0,0 -1,-1 -2,-2 -3,-3 -2,-3 -4,-7 -4,-10l0 0 0 0c0,-4 2,-7 4,-10 0,-1 0,-1 0,-1 -1,-1 -2,-2 -3,-3 -2,-3 -3,-7 -3,-10l0 0 0 0c0,-3 1,-7 3,-10 2,-3 5,-4 8,-5 -8,-9 -13,-19 -13,-30l0 0c0,-1 0,-1 0,-2 0,0 0,0 0,0l0 0c0,0 0,0 0,0 -2,-1 -4,-2 -5,-4 -3,-3 -5,-7 -5,-11l0 0 0 -3 0 0c0,-4 2,-8 5,-11 1,-2 3,-3 5,-4 0,0 0,0 0,0l0 0c0,0 0,0 0,0 0,-1 0,-1 0,-2l0 0c0,-14 8,-27 19,-36 10,-8 24,-13 39,-14 0,-1 -1,-2 -1,-3 -2,-4 -3,-8 -3,-13l0 0 0 0c0,-5 1,-9 3,-12 1,-4 4,-7 7,-7l0 0 0 0c3,0 6,3 7,7 2,3 3,7 3,12l0 0 0 0c0,5 -1,9 -3,13 0,1 -1,2 -1,3 15,1 29,6 39,14 11,9 19,22 19,36l0 0c0,1 0,1 0,2 0,0 0,0 0,0l0 0c0,0 0,0 0,0 2,1 3,2 5,4 3,3 5,7 5,11l0 0 0 3 0 0c0,4 -2,8 -5,11 -2,2 -3,3 -5,4 0,0 0,0 0,0l0 0c0,0 0,0 0,0 0,1 0,1 0,2l0 0c0,11 -5,21 -13,30 3,1 6,2 7,5 3,3 4,7 4,10l0 0 0 0c0,3 -1,7 -4,10 0,1 -1,2 -2,3 0,0 0,0 0,1 2,3 4,6 4,10l0 0 0 0c0,3 -2,7 -4,10 -1,1 -2,2 -3,3 0,0 0,0 0,0 3,3 4,7 4,10l0 0 0 0c0,3 -1,7 -4,10 0,1 -1,2 -2,3 0,0 0,0 0,0 2,3 3,6 3,10l0 0 0 0c0,3 -1,7 -3,9 -1,1 -2,2 -3,3 0,0 0,0 0,0 2,3 4,7 4,10l0 0 0 0c0,3 -2,7 -4,10 0,1 -1,2 -2,2 0,0 0,1 0,1 2,2 3,6 3,9l0 0 0 0c0,3 -1,7 -3,10 -1,1 -1,2 -2,2 0,0 0,0 0,0 2,3 3,7 3,10l0 0 0 0c0,3 -1,6 -3,9 -1,1 -2,2 -3,3 2,2 3,6 3,9l0 0 0 0c0,3 -1,7 -3,9 0,1 -1,2 -2,3 2,3 3,6 3,9l0 0 0 0c0,3 -1,6 -3,9 -1,1 -1,2 -2,3 2,2 3,6 3,9l0 0 0 0c0,3 -1,6 -3,9 -1,1 -2,1 -2,2 1,3 2,6 2,9l0 0 0 0c0,3 -1,6 -2,9 -1,1 -2,2 -2,2 1,3 2,6 2,9l0 0 0 0c0,3 -1,6 -3,9 0,1 -1,1 -2,2 2,3 3,6 3,8l0 0 0 0c0,3 -1,7 -3,9l0 0c0,1 -1,2 -2,3 2,2 3,5 3,8l0 0 0 0c0,3 -1,6 -3,8 0,1 -1,2 -2,3 2,2 3,5 3,8l0 0 0 0c0,3 -1,6 -3,8 0,1 -1,2 -2,3 2,2 2,5 2,8l0 0 0 0c0,2 0,6 -2,8 -1,1 -1,2 -2,2 2,3 2,6 2,8l0 0 0 0c0,3 -1,6 -2,9 -1,0 -1,1 -2,2 2,2 2,5 2,8l0 0 0 0c0,2 0,5 -2,7 33,7 47,-4 50,-25l1 -7c-2,-1 -4,-1 -5,-2 -1,-1 -2,-1 -3,-2 -5,-3 -9,-8 -10,-13 -1,0 -1,-1 -2,-1 0,-1 -1,-2 -1,-2 -3,-4 -4,-9 -4,-11 1,-3 1,-3 2,-4 0,0 0,-1 0,-1l1 -2 1 1c0,-1 1,-1 1,-2 1,-1 2,-1 3,-2 3,-3 8,-6 14,-7 0,0 1,-1 1,-1 1,-1 1,-1 2,-2 1,0 1,0 2,-1 -1,0 -2,0 -3,-1l0 0c-4,-3 -8,-7 -9,-12 -1,-1 -1,-1 -2,-2 0,-1 -1,-1 -1,-2 -3,-4 -4,-8 -4,-11 1,-2 1,-3 2,-4l0 0c0,0 0,0 0,0l1 -2 1 0c0,0 1,-1 1,-1 1,-1 2,-2 2,-2 4,-3 9,-6 14,-7 1,0 1,-1 2,-1 0,-1 1,-1 2,-1 0,-1 0,-1 1,-1 -1,0 -2,-1 -2,-1l0 0c-5,-3 -8,-8 -9,-12 -1,-1 -1,-1 -2,-2 0,0 -1,-1 -1,-2 -3,-3 -4,-8 -4,-10 1,-3 1,-3 2,-4l0 0c0,0 0,0 0,-1l1 -2 1 1c0,-1 1,-1 1,-1 1,-1 1,-2 2,-2 4,-4 8,-6 14,-7 0,0 0,-1 1,-1 0,-1 1,-1 2,-1 0,-1 0,-1 0,-1 0,0 -1,0 -1,-1 -4,-3 -8,-7 -9,-11 -1,-1 -1,-1 -1,-2l0 0c-1,0 -2,-1 -2,-2 -2,-3 -4,-7 -3,-10 0,-2 1,-3 1,-4l0 0c0,0 0,0 0,0l2 -2 0 0c1,0 1,0 1,-1l0 0c1,0 2,-1 2,-2 4,-3 8,-5 13,-6 1,-1 1,-1 2,-1 0,-1 1,-1 2,-2 0,0 0,0 0,0 0,0 -1,0 -1,0l0 0c-4,-3 -8,-7 -9,-12 0,0 -1,-1 -1,-1l0 0c-1,-1 -1,-1 -2,-2 -2,-3 -3,-7 -3,-10 1,-2 1,-3 1,-3 0,-1 1,-1 1,-1l1 -2 1 1c0,-1 0,-1 1,-2 0,0 1,-1 2,-1 3,-3 7,-6 12,-7 1,0 1,0 1,-1l0 0c1,0 2,-1 2,-1 0,0 0,0 0,0 0,0 0,0 -1,0l0 0c-4,-3 -7,-7 -8,-12 -1,0 -1,0 -1,-1 -1,0 -1,-1 -2,-2 -2,-3 -3,-7 -3,-9 1,-3 1,-3 1,-4l0 0c0,0 1,0 1,0l1 -2 1 0c0,0 0,0 1,-1l0 0c0,0 1,-1 1,-2 4,-3 8,-5 13,-6 0,0 0,0 1,-1 0,0 1,0 1,-1 0,0 0,0 0,0l0 0c-4,-3 -7,-7 -8,-11 -1,0 -1,-1 -2,-1 0,-1 -1,-1 -1,-2 -2,-3 -3,-7 -3,-9 0,-2 1,-3 1,-4 0,0 0,0 0,0l2 -2 0 0c1,0 1,0 1,-1 1,0 1,-1 2,-1 3,-3 7,-5 12,-6 0,-1 1,-1 1,-1 1,-1 1,-1 2,-1 -1,0 -1,0 -1,0l0 0c-4,-3 -7,-7 -8,-11 0,0 -1,-1 -1,-1 -1,-1 -1,-1 -1,-2 -3,-3 -4,-7 -3,-9 0,-2 0,-2 1,-3 0,0 0,0 0,-1l1 -2 1 1c0,0 1,-1 1,-1 0,-1 1,-1 2,-2 3,-2 7,-4 11,-5 0,-1 1,-1 1,-1 1,-1 1,-1 1,-1 0,0 0,0 0,-1 -4,-2 -6,-6 -8,-10 0,0 0,0 -1,-1 0,0 -1,-1 -1,-1 -2,-3 -3,-7 -3,-9 1,-2 1,-3 1,-3 0,-1 0,-1 1,-1l1 -2 0 1c1,-1 1,-1 1,-1 1,-1 1,-1 2,-2 3,-3 7,-4 11,-5 0,-1 1,-1 1,-1 0,-1 1,-1 1,-1 0,0 0,0 0,0 -4,-3 -6,-6 -8,-10 0,0 0,-1 -1,-1l0 0c0,-1 -1,-1 -1,-2 -2,-3 -3,-6 -3,-8 1,-2 1,-3 2,-3l0 0c0,-1 0,-1 0,-1l1 -2 1 1c0,-1 0,-1 0,-1 1,-1 1,-1 2,-2 3,-2 7,-4 11,-5zm-147 452c-2,-2 -2,-5 -2,-7l0 0 0 0c0,-3 0,-6 2,-8 -1,-1 -1,-2 -2,-2 -1,-3 -2,-6 -2,-9l0 0 0 0c0,-2 0,-5 2,-8 -1,0 -2,-1 -2,-2 -2,-2 -2,-6 -2,-8l0 0 0 0c0,-3 0,-6 2,-8 -1,-1 -2,-2 -2,-3 -2,-2 -3,-5 -3,-8l0 0 0 0c0,-3 1,-6 3,-8 -1,-1 -2,-2 -2,-3 -1,-1 -2,-2 -2,-4 -1,5 -4,9 -7,14 -1,2 -2,3 -3,5 -6,8 -15,16 -24,20 -2,1 -5,2 -7,2l-1 1 2 11c3,21 17,32 50,25zm-130 -466c0,0 0,0 0,0l0 0zm0 0l0 0c0,0 0,0 0,0l0 0c0,0 0,0 0,0l0 0zm20 190c0,0 0,0 0,0l0 0zm0 0l0 0c0,0 0,0 0,0l0 0zm381 441c-2,1 -3,1 -4,2 -1,0 -2,0 -2,1l0 1 0 0 0 0c-1,1 -3,3 -5,5 -1,2 -2,3 -4,5 -6,10 -10,22 -12,34 2,3 3,5 2,7 0,3 -1,4 -2,5 -1,2 -3,3 -5,3 -3,0 -6,0 -10,-2l0 0c0,0 -1,0 -1,-1l0 0c-1,0 -1,0 -2,-1l0 0c-3,-2 -4,-4 -6,-6 -2,-2 -5,-5 -13,-10 -6,-4 -17,-10 -30,-15 -46,-19 -97,-16 -146,-16 -3,0 -6,0 -8,0l0 0 -3 0c0,0 0,0 0,0l-3 0 0 0c-2,0 -5,0 -8,0 -49,0 -100,-3 -146,16 -13,5 -24,11 -30,15 -8,5 -11,8 -13,10 -2,2 -3,4 -6,6l0 0c-1,1 -1,1 -2,1l0 0c0,1 -1,1 -1,1l0 0c-4,2 -7,2 -10,2 -2,0 -4,-1 -5,-3 -1,-1 -2,-2 -2,-5 -1,-2 0,-4 2,-7 -2,-12 -6,-24 -12,-34 -2,-2 -3,-3 -5,-5 -1,-2 -3,-4 -4,-5l0 0 0 0 0 -1c0,-1 -1,-1 -2,-1 -1,-1 -2,-1 -4,-2 -1,-1 -3,-3 -4,-5l0 0c-1,-1 -1,-3 -1,-4 0,-2 1,-3 2,-5 1,-1 3,-2 5,-4 10,-5 20,-13 35,-24 1,0 2,-1 3,-2 0,0 0,0 0,0 -3,0 -6,-1 -9,-2 -5,-3 -9,-7 -13,-10 -3,-4 -5,-9 -6,-12l-5 4c-13,10 -28,8 -44,1 -15,-6 -29,-16 -39,-23l-7 -5 8 -3 33 -10c-11,-1 -23,-6 -34,-14 -15,-9 -27,-21 -35,-29l-8 -7 11 0 23 -1c-27,-4 -45,-28 -59,-48 -1,-1 -1,-1 -4,-5l-6 -8 11 2 43 6 -5 -1c-17,-3 -29,-16 -38,-32 -9,-16 -14,-33 -18,-46l-3 -10 9 5 31 14c-4,-2 -7,-4 -9,-7 -4,-4 -8,-9 -11,-14 -15,-26 -18,-64 -16,-82l1 -8 35 29c-17,-25 -25,-86 -7,-109l4 -4 3 4 27 35c-1,-2 -2,-4 -3,-6 -2,-5 -3,-11 -3,-18 -4,-31 5,-72 14,-89l4 -8 4 8 12 25c-3,-13 0,-26 4,-38 6,-17 17,-33 27,-46l5 -8 2 9 9 30c0,-2 0,-3 0,-5 0,-4 1,-9 2,-14 7,-27 26,-49 45,-68l24 159 63 270c2,11 5,20 10,28 4,8 10,15 17,22l1 1c1,-2 1,-3 2,-4 1,-4 2,-7 4,-12l1 -5 4 4c4,5 7,18 9,29 0,3 0,5 0,7 0,2 0,4 0,6l0 0 0 0 0 3c0,0 1,1 1,2 5,7 9,10 17,13 2,1 5,1 9,1 4,0 7,1 10,2 3,2 5,4 4,8l0 0c0,1 0,0 0,1l0 0c0,1 -1,3 -2,4 1,0 1,0 1,0l0 0 4 -1 0 4c0,13 5,24 14,31 2,2 3,3 5,4l56 0c2,-1 3,-2 5,-4 9,-7 14,-18 14,-31l0 -4 4 1 0 0c0,0 0,0 1,0 -1,-1 -2,-3 -2,-4l0 0c0,-1 0,0 0,-1l0 0c-1,-4 1,-6 4,-8 3,-1 6,-2 10,-2 4,0 7,0 9,-1 8,-3 12,-6 17,-13 0,-1 1,-2 1,-2l0 -3 0 0 0 0c0,-2 0,-4 0,-6 0,-2 0,-4 0,-7 2,-11 5,-24 9,-29l4 -4 1 5c1,5 3,8 4,12 1,1 1,2 2,4l1 -1c7,-7 13,-14 17,-22 5,-8 8,-17 10,-28l63 -270 24 -159c19,19 38,41 45,68 1,5 2,10 2,14 0,2 0,3 0,5l9 -30 2 -9 5 8c10,13 21,29 27,46 4,12 7,25 4,38l12 -25 4 -8 4 8c9,17 17,58 14,89 0,7 -1,13 -3,18 -1,2 -2,4 -3,6l27 -35 3 -4 4 4c18,23 10,84 -7,109l35 -29 1 8c2,18 -1,56 -16,82 -3,5 -7,10 -11,14 -2,3 -5,5 -9,7l31 -14 9 -5 -3 10c-4,13 -9,30 -18,46 -9,16 -21,29 -38,32l-5 1 43 -6 11 -2 -6 8c-3,4 -3,4 -4,5 -14,20 -32,44 -59,48l23 1 11 0 -8 7c-8,8 -21,20 -35,29 -11,8 -23,13 -34,14l33 10 8 3 -7 5c-10,7 -24,17 -39,23 -16,7 -31,9 -44,-1l-5 -4c-1,3 -3,8 -6,12 -4,3 -8,7 -13,10 -3,1 -6,2 -9,2 0,0 0,0 0,0 1,1 2,2 3,2 15,11 25,19 35,24 2,2 4,3 5,4 1,2 1,3 2,5 0,1 -1,3 -1,4l0 0c-1,2 -3,4 -4,5zm-452 -98l-28 22c6,-1 16,-2 23,-4 7,-2 15,-4 23,-8 -7,-2 -14,-6 -18,-10zm402 0c-4,4 -12,8 -18,10 8,4 16,6 23,8 7,2 17,3 23,4l-28 -22z"/>
   <path class="fil1" d="M339 251l17 112 2 30 21 170 -5 5c-1,1 -3,6 -5,9l-68 -235c-9,-30 19,-73 38,-91zm198 403c0,8 -5,19 -15,29 -8,10 -18,16 -26,17l0 0 -1 -5c2,-7 7,-16 14,-24 10,-11 21,-17 28,-17zm-144 -355c6,0 15,4 24,12 8,7 13,14 14,20l2 3 0 2 -4 -3c-6,-1 -14,-5 -22,-11 -8,-8 -14,-17 -14,-23zm77 1c1,5 -2,14 -8,23 -6,7 -12,13 -18,15l-2 3 -1 -2 2 -3c0,-5 2,-13 8,-21 6,-9 13,-14 19,-15zm9 50c1,6 -3,15 -9,24 -6,8 -13,14 -18,15 -1,1 -2,2 -3,3l0 -2c0,-1 1,-1 1,-2 0,-6 3,-14 9,-22 6,-9 14,-15 20,-16zm-80 1c6,0 16,4 25,11 8,7 13,15 15,21 0,1 1,1 2,2l0 2c-1,-1 -3,-2 -4,-3 -6,0 -15,-4 -23,-10 -9,-8 -15,-17 -15,-23zm5 52c7,-1 17,3 26,10 9,7 15,15 16,21 1,1 2,2 3,2l0 2c-1,0 -3,-1 -4,-2 -7,0 -16,-4 -24,-11 -10,-7 -16,-16 -17,-22zm85 -2c0,6 -3,16 -10,25 -7,8 -14,14 -20,15 -1,1 -1,2 -2,2l0 -2c0,0 0,-1 1,-1 0,-7 3,-15 9,-24 7,-9 16,-14 22,-15zm9 50c1,7 -3,17 -11,26 -6,9 -14,15 -20,16 -1,1 -2,1 -2,2l-1 -3c1,0 1,0 1,-1 0,-6 4,-15 11,-24 7,-9 16,-15 22,-16zm-88 4c7,-1 17,2 27,10 9,6 16,15 17,21 1,1 2,1 2,2l1 2c-2,-1 -3,-2 -4,-2 -7,0 -16,-4 -25,-11 -10,-7 -17,-16 -18,-22zm6 51c7,-1 18,3 28,10 10,7 16,15 18,21 1,1 1,2 2,2l0 2c-1,0 -2,-1 -3,-2 -7,0 -17,-3 -26,-10 -11,-7 -18,-16 -19,-23zm92 -4c1,7 -4,17 -12,27 -7,9 -16,14 -22,16 0,0 -1,1 -1,1l-1 -3c0,0 0,0 0,0 1,-7 5,-16 12,-25 8,-9 17,-15 24,-16zm10 51c0,7 -5,18 -13,27 -8,9 -17,15 -24,17 0,0 0,0 -1,1l0 -4c1,-7 5,-16 13,-25 8,-10 18,-16 25,-16zm-96 5c7,-1 18,2 29,9 10,7 17,15 19,22 1,0 1,1 2,1l0 3c-1,-1 -2,-2 -4,-2 -7,0 -17,-3 -27,-10 -10,-7 -18,-16 -19,-23zm6 52c7,-2 19,2 30,9 10,6 17,15 20,22 0,0 1,0 2,1l0 2c-1,0 -3,-1 -4,-2 -7,1 -17,-2 -28,-9 -11,-7 -19,-16 -20,-23zm100 -7c0,8 -5,19 -14,29 -9,9 -18,15 -25,16 0,1 -1,1 -1,1l-1 -5c2,-7 7,-16 14,-24 9,-10 19,-16 27,-17zm-94 59c7,-2 19,1 31,8 10,7 18,15 21,22l1 1 1 3 -4 -2c-7,1 -18,-2 -29,-9 -11,-7 -20,-16 -21,-23zm-9 -418c5,4 10,14 11,27 2,10 1,21 -3,26 -1,3 0,6 0,9 -1,-3 -1,-6 -4,-8 -4,-5 -8,-14 -9,-25 -1,-13 1,-24 5,-29zm129 518c1,0 2,0 3,0l0 0 22 0 0 0c1,0 2,0 3,0 1,1 2,4 2,5 0,5 -3,10 -7,10l-18 0c-4,0 -7,-5 -7,-10 0,-1 1,-4 2,-5zm-2 -475l13 11 -25 0 12 -11zm16 -38c33,0 61,21 61,47l-13 -11 -1 -2 -2 2 -14 13 -14 -13 -1 -2 -2 2 -14 13 -14 -13 -2 -2 -1 2 -14 13 -14 -13 -2 -2 -2 2 -12 11c0,-26 28,-47 61,-47zm0 -34c4,0 7,7 7,16 0,9 -3,16 -7,16 -4,0 -7,-7 -7,-16 0,-9 3,-16 7,-16zm48 149l-96 0c-8,-8 -13,-18 -13,-29l12 11 2 2 2 -2 14 -13 14 13 1 2 2 -2 14 -13 14 13 2 2 1 -2 14 -13 14 13 2 2 1 -2 13 -11c0,11 -5,21 -13,29zm9 -63c8,0 14,6 14,13l0 3c0,7 -6,13 -14,13l-114 0c-8,0 -14,-6 -14,-13l0 -3c0,-7 6,-13 14,-13l114 0zm-73 43l-12 -11 25 0 -13 11zm32 0l-13 -11 25 0 -12 11zm31 0l-13 -11 23 0 0 0c1,0 2,0 2,0l-12 11zm-94 0l-12 -11c0,0 1,0 2,0l0 0 23 0 -13 11zm63 -57l12 11 -25 0 13 -11zm31 0l12 11c0,0 -1,0 -2,0l0 0 -23 0 13 -11zm-94 0l13 11 -23 0 0 0c-1,0 -2,0 -2,0l12 -11zm96 79c6,0 11,7 11,13 0,6 -5,13 -11,13l-98 0c-6,0 -11,-7 -11,-13 0,-6 5,-13 11,-13l98 0zm-102 28c1,0 2,1 4,1l0 0 98 0 0 0c2,0 3,-1 4,-1 2,2 4,6 4,9 0,5 -5,12 -10,12 -31,0 -63,0 -94,0 -5,0 -10,-7 -10,-12 0,-3 2,-7 4,-9zm2 23c1,1 3,1 4,1l0 0 94 0 0 0c1,0 3,0 4,-1 2,3 3,6 3,9 0,5 -5,12 -10,12 -29,0 -59,0 -88,0 -6,0 -10,-7 -10,-12 0,-3 1,-6 3,-9zm3 23c1,1 2,1 4,1l0 0 88 0 0 0c2,0 3,0 4,-1 2,3 4,6 4,9 0,5 -5,12 -10,12 -28,0 -56,0 -84,0 -5,0 -10,-7 -10,-12 0,-3 2,-6 4,-9zm32 304c1,0 2,1 3,1l0 0 26 0 0 0c1,0 2,-1 3,-1 1,2 2,4 2,6 0,4 -3,10 -7,10l-22 0c-4,0 -7,-6 -7,-10 0,-2 1,-4 2,-6zm-2 -18c1,0 2,0 3,0l0 0 30 0 0 0c1,0 2,0 3,0 1,1 2,4 2,6 0,4 -3,10 -7,10l-26 0c-4,0 -7,-6 -7,-10 0,-2 1,-5 2,-6zm-2 -19c1,1 2,1 3,1l0 0 34 0 0 0c1,0 2,0 3,-1 1,2 2,4 2,6 0,5 -3,11 -7,11l-30 0c-4,0 -7,-6 -7,-11 0,-2 1,-4 2,-6zm-2 -19c1,1 2,1 3,1l0 0 38 0 0 0c1,0 2,0 3,-1 1,2 2,5 2,7 0,4 -3,10 -7,10l-34 0c-4,0 -7,-6 -7,-10 0,-2 1,-5 2,-7zm-2 -19c1,1 2,1 3,1l0 0 42 0 0 0c1,0 2,0 3,-1 1,2 2,5 2,7 0,4 -3,11 -7,11l-38 0c-4,0 -7,-7 -7,-11 0,-2 1,-5 2,-7zm-2 -19c1,1 2,1 3,1l0 0 46 0 0 0c1,0 2,0 3,-1 1,2 2,5 2,7 0,4 -3,11 -7,11l-42 0c-4,0 -7,-7 -7,-11 0,-2 1,-5 2,-7zm-2 -19c1,0 2,1 3,1l0 0 50 0 0 0c1,0 2,-1 3,-1 2,2 2,4 2,6 0,5 -3,12 -7,12l-46 0c-4,0 -7,-7 -7,-12 0,-2 0,-4 2,-6zm-2 -20c1,0 2,1 3,1l0 0 54 0 0 0c1,0 2,-1 3,-1 2,2 3,5 3,7 0,5 -4,11 -8,11l-50 0c-4,0 -8,-6 -8,-11 0,-2 1,-5 3,-7zm-3 -20c2,0 3,1 4,1l0 0 58 0 0 0c1,0 2,-1 4,-1 1,2 2,5 2,7 0,5 -4,11 -8,11l-54 0c-4,0 -8,-6 -8,-11 0,-2 1,-5 2,-7zm-2 -21c1,1 3,1 4,1l0 0 62 0 0 0c1,0 3,0 4,-1 1,2 2,5 2,8 0,4 -4,11 -8,11l-58 0c-4,0 -8,-7 -8,-11 0,-3 1,-6 2,-8zm-2 -21c1,1 3,1 4,1l0 0 66 0 0 0c1,0 3,0 4,-1 1,3 2,6 2,8 0,5 -4,12 -8,12l-62 0c-4,0 -8,-7 -8,-12 0,-2 1,-5 2,-8zm-2 -21c1,1 2,1 4,1l0 0 70 0 0 0c2,0 3,0 4,-1 2,3 3,5 3,8 0,5 -4,12 -9,12l-66 0c-5,0 -9,-7 -9,-12 0,-3 1,-5 3,-8zm-2 -21c1,0 2,1 3,1l0 0 76 0 0 0c1,0 2,-1 3,-1 2,2 3,5 3,8 0,5 -4,12 -9,12l-70 0c-5,0 -9,-7 -9,-12 0,-3 1,-6 3,-8zm-3 -22c1,1 3,1 4,1l0 0 80 0 0 0c1,0 2,0 4,-1 1,2 3,5 3,8 0,5 -5,12 -9,12l-76 0c-4,0 -9,-7 -9,-12 0,-3 1,-6 3,-8zm-2 -22c1,0 2,1 4,1l0 0 84 0 0 0c1,0 3,-1 4,-1 2,2 3,5 3,8 0,5 -4,12 -9,12l-80 0c-5,0 -9,-7 -9,-12 0,-3 1,-6 3,-8zm34 316c1,1 2,1 3,1l0 0 18 0 0 0c1,0 2,0 3,-1 1,2 2,4 2,6 0,4 -3,10 -7,10l-15 0c-3,0 -6,-6 -6,-10 0,-2 1,-4 2,-6zm2 18c0,0 1,1 2,1l0 0 15 0 0 0c2,0 3,-1 3,-1 1,1 2,2 2,5 0,3 -3,10 -6,10l-12 0c-3,0 -6,-7 -6,-10 0,-3 1,-4 2,-5zm-218 -171l-113 -151c-19,-25 -7,-93 5,-116l119 240c-4,5 -9,17 -11,27zm456 0c-2,-10 -7,-22 -11,-27l119 -240c12,23 23,91 4,116l-112 151zm18 211l-6 -5 0 -4 -5 0 -32 -25c5,-5 7,-11 7,-17l0 0c0,-1 0,-3 0,-5l8 -2 106 35c-18,14 -56,40 -78,23zm-2 -91c1,-5 3,-11 3,-14l1 -6 -6 3 -5 3c0,-1 1,-2 1,-3 2,-3 4,-8 5,-12l152 -23c-16,21 -39,53 -70,52l-81 0zm-2 4l117 4c-16,15 -51,49 -76,41l-60 -19c1,0 1,0 1,0 3,-2 5,-4 7,-6 5,-6 9,-13 11,-20zm2 -37c1,-6 1,-15 1,-19l163 -78c-8,25 -27,72 -58,78l-106 19zm2 -24l-3 -4 -4 3c2,-2 2,-4 3,-7 2,-6 2,-14 1,-21l164 -136c3,24 -10,90 -43,107l-118 58zm-3 -33c-1,-5 -3,-13 -4,-16l-2 -5 -4 5 -5 7c0,0 0,0 0,0 2,-6 1,-11 1,-17l149 -192c18,22 9,94 -16,116l-119 102zm-489 181c-22,17 -60,-9 -78,-23l106 -35 8 2c0,2 -1,4 0,5l0 0c0,6 2,12 7,17l-32 25 -5 0 0 4 -6 5zm4 -87c2,7 6,14 11,20 2,2 4,4 7,6 0,0 0,0 1,0l-60 19c-25,8 -60,-26 -76,-41l117 -4zm-2 -4l-81 0c-31,1 -54,-31 -70,-52l152 23c1,4 3,9 5,12 0,1 1,2 1,3l-5 -3 -6 -3 1 6c0,3 2,9 3,14zm0 -33l-106 -19c-31,-6 -50,-53 -58,-78l163 78c0,4 0,13 1,19zm-2 -24l-118 -58c-33,-17 -46,-83 -43,-107l164 136c-1,7 -1,15 1,21 1,3 1,5 2,7l-4 -3 -2 4zm3 -33l-119 -102c-25,-22 -34,-94 -16,-116l149 192c0,6 -1,11 1,17 0,0 0,0 0,0l-5 -7 -4 -5 -2 5c-1,3 -3,11 -4,16zm119 187c6,-6 15,-9 24,-12 9,-3 19,-5 29,-7 11,-1 21,-2 31,-2l80 0c10,0 20,1 31,2 10,2 20,4 29,7 9,3 18,6 24,12 5,3 6,9 2,13 -3,5 -9,6 -14,2 -6,-4 -13,-8 -22,-10 -8,-3 -17,-4 -26,-5 -9,-1 -19,-2 -28,-2l-73 0c-8,0 -18,1 -27,2 -9,1 -18,2 -26,5 -9,2 -16,6 -22,10 -5,4 -11,3 -14,-2 -4,-4 -3,-10 2,-13zm-19 -92c12,2 26,4 37,0 -3,7 2,15 10,22 -11,8 -18,21 -18,36 0,8 2,15 6,21 -2,1 -4,2 -6,3 -5,2 -9,5 -12,7l0 0 0 0 0 0c-3,3 -5,6 -5,9 0,2 0,5 1,8 -33,13 -110,36 -101,30 15,-11 28,-21 40,-30 5,-2 12,-5 18,-11 5,-5 10,-9 14,-13 4,-4 8,-8 11,-12 3,-4 6,-8 8,-12 2,-4 4,-8 5,-11l0 0c0,0 0,0 0,0l0 0 0 0c0,0 0,0 0,0l0 0c0,0 0,0 0,0l0 0c0,0 0,0 0,0l0 0c0,-1 0,-2 0,-2 0,-1 1,-1 1,-2 0,-3 0,-6 0,-9l0 -1c0,0 0,-1 0,-1 -1,-1 -1,-2 -1,-2 -1,-3 -2,-6 -4,-9l0 0 0 0 0 0c-1,0 -1,-1 -2,-1 0,-1 -1,-1 -1,-2l0 0c-3,-2 -6,-4 -9,-5l0 0 0 0c-1,0 -1,0 -2,0 -1,0 -1,-1 -2,-1 -4,0 -7,0 -12,0l0 0c-1,0 -2,1 -2,1 -1,0 -2,0 -3,1 -4,1 -8,4 -11,7l0 0c0,1 -1,1 -1,2 -1,0 -1,1 -1,2 -2,3 -4,6 -4,10l0 0 0 0c0,1 0,2 0,2 -1,1 -1,2 -1,2 0,4 1,8 3,11l0 0 0 0 0 0c0,1 0,2 1,3 0,0 0,1 1,2 2,2 4,5 7,7 0,0 -1,0 -1,1 -7,-1 -16,-6 -21,-12 -22,-25 9,-60 57,-51zm110 68l-7 0c-5,0 -10,0 -15,1 -5,0 -11,1 -16,2 -5,0 -10,1 -15,2 -5,1 -10,2 -15,4 -2,0 -3,1 -5,2 -4,-8 -6,-17 -6,-25 2,-12 8,-23 17,-31 2,1 5,3 8,4 13,7 28,9 37,6 0,0 0,0 0,1 0,13 6,26 17,34zm-58 -46c-5,-3 -11,-9 -13,-14 -2,-7 1,-13 6,-11 4,2 8,11 14,15 7,4 12,6 19,6 8,1 13,2 12,7 0,5 -6,8 -12,7 -8,0 -22,-7 -26,-10zm-11 -66c5,7 9,27 8,40 -3,-4 -7,-4 -11,1 -4,1 -11,2 -16,2 -6,1 -13,0 -20,-2 1,0 3,0 4,-1 7,-3 18,-8 25,-18 5,-6 7,-13 10,-22zm-73 137c-10,9 -19,13 -27,14 -6,0 -12,-1 -17,-3 -5,-2 -9,-6 -12,-9 -4,-5 -6,-10 -7,-14l0 -2 2 0c10,0 20,-1 31,-4 10,-2 22,-7 32,-13 -5,-3 -9,-8 -11,-13 -2,-4 -3,-8 -2,-13 2,-16 18,-25 34,-20 4,1 7,4 10,7 6,8 7,16 3,25 -3,7 -5,12 -11,20 -6,7 -15,16 -25,25zm208 -25c11,-8 17,-21 17,-34 0,-1 0,-1 0,-1 9,3 24,1 37,-6 3,-1 5,-3 8,-4 9,8 15,19 16,31 1,8 -1,17 -5,25 -2,-1 -3,-2 -5,-2 -5,-2 -10,-3 -15,-4 -5,-1 -10,-2 -15,-2l0 0c-5,-1 -11,-2 -16,-2 -5,-1 -10,-1 -15,-1l-7 0zm69 -112c3,9 5,16 10,22 7,10 18,15 25,18 1,1 3,1 4,1 -7,2 -14,3 -20,2 -5,0 -12,-1 -16,-2 -4,-5 -8,-5 -11,-1 -1,-13 3,-33 8,-40zm73 137c-10,-9 -19,-18 -25,-25 -6,-8 -8,-13 -11,-20 -4,-9 -3,-17 3,-25 3,-3 6,-6 10,-7 16,-5 32,4 34,20 1,5 0,9 -2,13 -2,5 -6,10 -11,13 10,6 22,11 32,13 11,3 21,4 31,4l2 0 0 2c-1,4 -3,9 -7,14 -3,3 -7,7 -12,9 -5,2 -11,3 -17,3 -8,-1 -17,-5 -27,-14zm-32 -93c48,-9 79,26 57,51 -5,6 -14,11 -21,12 -1,-1 -1,-1 -1,-1 3,-2 5,-5 7,-7 1,-1 1,-2 1,-2 1,-1 1,-2 1,-3l0 0 0 0 0 0c2,-3 3,-7 3,-11 0,0 -1,-1 -1,-2 0,0 0,-1 0,-2l0 0 0 0c0,-4 -2,-7 -4,-10 0,-1 0,-2 -1,-2 0,-1 -1,-1 -1,-2l0 0c-3,-3 -7,-6 -11,-7 -1,-1 -2,-1 -3,-1 -1,0 -1,-1 -2,-1l0 0c-5,0 -9,0 -12,0 -1,0 -1,1 -2,1 -1,0 -1,0 -2,0l0 0 0 0c-3,1 -7,3 -9,5l0 0c0,1 -1,1 -1,2 -1,0 -1,1 -2,1l0 0 0 0 0 0c-2,3 -3,6 -4,9 0,0 0,1 -1,2 0,0 0,1 0,1l0 1c0,3 0,6 0,9 0,1 1,1 1,2 0,0 0,1 0,2l0 0c0,0 0,0 0,0l0 0c0,0 0,0 0,0l0 0c0,0 0,0 0,0l0 0 0 0c0,0 0,0 0,0l0 0c1,3 3,7 5,11 2,4 5,8 8,12 3,4 7,8 11,12 4,4 9,8 14,13 6,6 13,9 18,11 12,9 25,19 40,30 9,6 -68,-17 -101,-30 1,-3 1,-6 1,-8 0,-3 -2,-6 -5,-9l0 0 0 0c-3,-2 -7,-5 -12,-7 -2,-1 -4,-2 -6,-3 4,-6 6,-13 6,-21 0,-15 -7,-28 -18,-36 8,-7 13,-15 10,-22 11,4 25,2 37,0zm-52 22c-4,3 -18,10 -26,10 -6,1 -12,-2 -12,-7 -1,-5 4,-6 12,-7 7,0 12,-2 19,-6 6,-4 9,-13 14,-15 5,-2 8,4 6,11 -2,5 -8,11 -13,14zm115 -162c0,-1 0,-2 0,-2 -1,-9 -3,-18 -5,-25l85 -284c19,27 41,62 25,95l-105 216zm-36 137c2,0 3,-1 4,-2 20,-7 26,-38 23,-64 9,26 16,59 -2,76 -6,-5 -15,-9 -25,-10zm11 -111c7,34 4,76 -22,90 -11,6 -24,5 -37,-1 17,-3 24,-6 34,-15 19,-19 23,-53 25,-74zm6 16c14,38 8,77 -13,90 -8,5 -21,6 -32,2 -9,-2 -19,-9 -28,-19 8,3 14,7 20,8 18,3 27,-2 36,-10 14,-12 21,-44 17,-71zm18 96c4,-8 5,-19 4,-30l32 -28c2,11 0,39 -16,47l-20 11zm5 29c-1,-4 -3,-8 -6,-11 -1,-3 -4,-5 -6,-7 1,-2 3,-3 4,-5l42 -23c-1,11 -11,40 -28,44l-6 2zm-1 -64c-1,-3 -2,-6 -2,-10 -1,-4 -2,-8 -3,-12 -1,0 -1,-1 -1,-2l33 -49c4,11 8,41 -5,53l-22 20zm-8 -29c-2,-5 -4,-10 -5,-11 -1,-5 -3,-10 -4,-15l23 -57c7,10 17,36 7,51l-21 32zm-11 -32c-2,-3 -3,-6 -5,-8 -1,-6 -2,-9 -3,-15l7 -62c3,3 8,13 11,25 3,11 4,24 0,34l-10 26zm-14 -6c-7,60 -34,73 -62,76 15,-14 23,-29 29,-51l64 -279 -31 254zm53 -396c19,18 47,61 38,91l-68 235c-2,-3 -4,-8 -6,-9l-4 -5 21 -170 2 -30 17 -112zm-439 527l-6 -2c-17,-4 -27,-33 -28,-44l42 23c1,2 3,3 4,5 -2,2 -5,4 -6,7 -3,3 -5,7 -6,11zm40 -30c-10,1 -19,5 -25,10 -18,-17 -11,-50 -2,-76 -3,26 3,57 22,64 2,1 3,2 5,2zm-35 1l-20 -11c-16,-8 -18,-36 -16,-47l32 28c-1,11 0,22 4,30zm-4 -35l-22 -20c-13,-12 -9,-42 -5,-53l33 49c0,1 0,2 -1,2 -1,4 -2,8 -3,12 0,4 -1,7 -2,10zm8 -29l-21 -32c-10,-15 0,-41 7,-51l23 57c-1,5 -3,10 -4,15 -1,1 -3,6 -5,11zm14 -32c-4,27 3,59 17,71 9,8 18,13 36,10 6,-1 12,-5 20,-8 -9,10 -19,17 -28,19 -11,4 -24,3 -32,-2 -21,-13 -27,-52 -13,-90zm6 -16c2,21 6,55 25,74 10,9 17,12 34,15 -13,6 -26,7 -37,1 -26,-14 -29,-56 -22,-90zm-9 16l-10 -26c-8,-19 4,-52 11,-59l7 62c-1,6 -2,9 -3,15 -2,2 -3,5 -5,8zm-16 -42l-105 -216c-16,-33 6,-68 25,-95l85 284c-2,7 -5,16 -5,25 0,0 0,1 0,2zm30 36l-31 -254 64 279c6,22 14,37 29,51 -29,-3 -55,-16 -62,-76z"/>
   <path class="fil2" d="M1127 416l-213 657 -692 0 -213 -657 559 -407 559 407zm-630 298c2,13 7,21 18,26 8,3 19,3 33,0 1,1 1,1 2,2 -1,1 -1,2 -2,3 -16,4 -28,3 -37,0 -11,-5 -17,-15 -19,-29l-63 -414c3,2 4,5 4,8 1,-1 0,-7 2,-8l62 412zm142 0l1 -7c1,0 3,1 4,1 1,0 1,0 1,0l-1 8c-2,14 -8,24 -19,29 -9,3 -21,4 -37,0 -1,-1 -1,-2 -2,-3 1,-1 1,-1 2,-2 14,3 25,3 33,0 11,-5 16,-13 18,-26zm-11 -42l6 5 7 -3 6 5 7 -3 6 5 7 -4 5 6 4 -2c1,1 1,1 1,4 -1,3 -5,9 -10,11 -5,7 -14,11 -24,10 -10,-2 -18,-9 -20,-17 -5,-4 -7,-10 -7,-13 1,-3 1,-2 2,-4l3 3 7 -3zm61 -375l4 4 6 -3 4 4 5 -2 5 4 5 -3 4 4 3 -1c0,1 1,1 0,3 0,2 -3,6 -7,8 -2,3 -6,6 -11,7 0,0 0,-1 0,-1 -2,-1 -4,-2 -6,-2l0 0c-3,-1 -5,0 -8,1 -4,-3 -7,-6 -8,-10 -3,-3 -5,-8 -5,-10 1,-2 1,-2 1,-3l3 2 5 -2zm-6 36c2,1 3,3 5,4 1,-1 3,-2 5,-3 2,2 3,3 5,4 1,0 3,-1 5,-2 2,1 3,3 5,4 1,-1 3,-2 5,-3 2,2 3,3 5,4 1,0 2,-1 3,-1 0,1 0,1 0,3 -1,3 -4,7 -8,8 -2,4 -6,7 -11,8 0,0 -1,-1 -1,-1l0 0c-2,-1 -4,-2 -6,-3l0 0c-3,0 -5,0 -8,2 -4,-3 -7,-6 -8,-11 -3,-3 -5,-7 -5,-10 0,-2 1,-2 1,-3 1,1 2,2 3,2 2,0 3,-1 5,-2zm-6 37c2,1 3,3 5,4 2,-1 3,-2 5,-2 2,1 3,2 5,4 2,-1 4,-2 6,-3 1,1 3,3 4,4 2,-1 4,-1 6,-2 2,1 3,2 5,4 1,-1 2,-1 3,-2 0,2 0,1 0,4 0,2 -4,6 -8,8 -2,4 -7,7 -11,8 -1,0 -1,-1 -1,-1 -2,-1 -4,-2 -7,-3l0 0c-2,0 -5,1 -7,2 -5,-3 -8,-7 -9,-11 -4,-3 -6,-8 -5,-10 0,-3 0,-3 1,-4 1,1 2,2 2,3 2,-1 4,-2 6,-3zm-6 38c1,2 3,3 5,5 2,-1 3,-2 5,-3 2,2 4,3 5,4 2,0 4,-1 6,-2 2,1 3,3 5,4 2,-1 4,-2 6,-3 1,2 3,3 5,5 1,-1 2,-1 3,-2 0,1 0,1 0,4 0,2 -4,7 -8,8 -3,4 -7,7 -12,8 0,0 -1,0 -1,0 -2,-2 -4,-3 -7,-3l0 0c-2,-1 -5,0 -8,1 -4,-2 -7,-6 -9,-11 -3,-3 -5,-8 -5,-11 0,-2 1,-2 1,-3 1,1 2,1 3,2 2,-1 4,-2 6,-3zm-7 40c2,2 4,3 5,5 2,-1 4,-2 6,-3 2,1 4,3 5,5 2,-1 4,-2 6,-3 2,1 4,3 5,4 2,-1 4,-2 6,-3 2,2 4,3 5,5 1,-1 3,-1 4,-2 0,1 0,1 0,4 0,2 -4,7 -9,9 -2,4 -7,7 -12,8 -1,0 -1,-1 -2,-1 0,0 0,0 -1,-1 -1,-1 -3,-1 -5,-1l0 0c-2,-1 -5,0 -8,1 -5,-3 -8,-7 -9,-12 -4,-3 -6,-8 -6,-11 1,-2 1,-2 1,-3 1,1 2,1 3,2 2,-1 4,-2 6,-3zm-6 42c1,1 3,3 5,4 2,-1 4,-2 6,-3 2,2 3,3 5,5 2,-1 4,-2 6,-3 2,2 4,3 5,5 3,-1 5,-2 7,-3 1,1 3,3 5,4 1,0 2,-1 3,-1 1,1 1,1 1,4 -1,2 -4,7 -9,9 -3,4 -8,7 -14,9 0,-1 0,-1 -1,-1 0,-1 -1,-1 -1,-1l0 0c-2,-1 -3,-2 -5,-2l0 0c-3,0 -5,0 -8,1 -5,-2 -9,-7 -10,-12 -4,-3 -6,-9 -6,-11 1,-3 1,-3 1,-4 1,1 2,2 3,3 2,-1 4,-2 7,-3zm-7 42c1,2 3,4 5,5 2,-1 4,-2 6,-3 2,2 4,3 6,5 2,-1 4,-2 6,-3 2,2 4,3 5,5 3,-1 5,-2 7,-3 2,1 3,3 5,5 1,-1 3,-2 4,-2 0,1 0,1 0,4 0,3 -4,7 -9,10 -3,4 -8,7 -14,8 -1,0 -1,0 -1,0 -1,-1 -1,-1 -2,-1 -1,-1 -3,-2 -5,-2l0 0c-2,0 -5,0 -7,1 -6,-3 -10,-7 -11,-12 -5,-4 -7,-10 -6,-12 0,-3 0,-3 1,-4 1,1 2,2 3,3 2,-1 4,-3 7,-4zm-8 45c2,2 4,3 6,5 2,-1 4,-2 6,-3 2,1 4,3 6,5 2,-1 4,-2 7,-3 1,1 3,3 5,5 2,-1 5,-3 7,-4 2,2 3,4 5,5 1,0 3,-1 4,-1 0,1 1,1 0,4 0,3 -4,8 -9,10 -3,5 -9,8 -15,9 0,0 -1,0 -1,0 0,-1 -1,-1 -1,-1l0 0c-2,-1 -4,-2 -5,-2l0 0c-3,0 -6,0 -8,1 -6,-3 -10,-8 -12,-13 -4,-4 -6,-10 -6,-13 1,-3 1,-2 2,-4 1,1 2,2 3,3 2,-1 4,-2 6,-3zm-7 46c2,2 4,4 5,6 3,-2 5,-3 7,-4 2,2 4,4 6,5 2,-1 5,-2 7,-3 2,2 4,4 5,5 3,-1 5,-2 7,-3 2,2 4,3 6,5 1,0 3,-1 4,-2 0,2 0,2 0,4 0,3 -4,9 -10,11 -3,5 -9,9 -16,9 0,0 -1,0 -1,0 -2,-1 -4,-2 -6,-2l0 0c-2,-1 -4,0 -7,0 -6,-2 -11,-8 -12,-14 -5,-3 -7,-9 -7,-12 1,-3 1,-3 2,-4 1,1 2,2 3,3 2,-1 5,-3 7,-4zm139 238c18,13 30,22 41,28 6,3 7,8 1,13 -8,4 -20,6 -27,3 -2,0 -3,-1 -4,-2 0,1 2,3 5,4 5,2 14,1 21,-1 -11,9 -21,30 -22,42 0,2 0,3 0,4 2,4 3,8 1,11 -3,2 -8,2 -13,0 0,-1 -1,-1 -2,-2 -1,0 -2,-1 -3,-2 0,0 0,0 0,0 -6,-5 -12,-12 -16,-14 -21,-12 -43,-24 -78,-28 -32,-4 -71,-4 -111,-4 -40,0 -80,0 -111,4 -35,4 -57,16 -78,28 -4,2 -10,9 -16,14 0,0 0,0 0,0 -1,1 -2,2 -3,2 -1,1 -2,1 -2,2 -6,2 -10,2 -13,0 -2,-3 -1,-7 1,-11 0,-1 0,-2 0,-4 -1,-12 -11,-33 -22,-42 7,2 16,3 21,1 3,-1 4,-3 5,-4 -1,1 -2,2 -4,2 -7,3 -19,1 -27,-3 -6,-5 -5,-10 1,-13 11,-6 23,-15 41,-28 1,0 3,0 5,0 1,0 1,0 1,0 -21,16 -32,24 -40,30 7,1 29,-3 35,-5 23,-7 59,-18 78,-27 1,1 1,1 1,1 1,1 2,1 3,2 4,2 9,2 13,-1 3,-3 7,-5 10,-6 4,-2 7,-3 11,-5 5,-1 9,-2 13,-3 4,0 9,-1 13,-2l0 0c0,0 0,0 0,0l0 0c0,0 0,1 0,0l0 0c0,0 0,0 0,0l0 0c0,0 0,0 0,0l0 0c1,0 2,0 4,0 2,0 3,0 4,0 7,-1 13,-1 19,-1l73 0 1 0c4,0 8,0 13,0 1,1 1,1 2,1 4,0 8,0 12,0 4,1 9,2 13,2 4,1 8,2 13,3 3,2 7,3 11,5 3,1 7,3 10,6l0 0 0 0 0 0c1,0 1,1 2,1 1,0 2,1 3,1 4,1 9,-1 12,-4 19,9 55,20 78,27 6,2 28,6 35,5 -8,-6 -19,-14 -40,-30 0,0 0,0 1,0 2,0 4,0 5,0zm-64 -614c5,3 8,11 7,21 -2,7 -5,13 -9,16 -2,-1 -4,-2 -7,-1 -3,-4 -4,-11 -3,-18 1,-10 7,-17 12,-18zm-74 414c4,-4 8,-6 13,-5 5,0 9,4 12,9 6,3 11,9 13,15l-2 1 -6 -5 -7 3 -6 -5 -7 3 -6 -5 -7 3 -6 -5 -7 4 -2 -2c4,-6 10,-10 18,-11zm59 -372c2,-3 6,-5 10,-4 3,0 6,3 8,6 5,3 9,7 10,12l-2 1 -4 -4 -5 2 -5 -4 -5 3 -4 -4 -5 3 -5 -4 -5 2 -2 -1c3,-4 8,-7 14,-8zm-6 35c3,-2 7,-4 10,-3 4,0 7,3 9,6 5,3 9,7 11,12 -1,1 -2,1 -2,1 -2,-1 -3,-3 -5,-4 -2,1 -3,2 -5,3 -2,-2 -3,-3 -5,-4 -2,0 -3,1 -5,2 -2,-1 -3,-3 -5,-4 -2,1 -3,2 -5,3 -2,-2 -3,-3 -5,-4 -1,1 -3,1 -5,2 -1,0 -1,-1 -2,-1 3,-4 8,-7 14,-9zm-6 37c3,-3 7,-4 11,-4 4,1 7,4 9,7 5,3 9,8 11,13 -1,0 -1,0 -2,1 -2,-2 -3,-3 -5,-5 -2,1 -4,2 -6,3 -1,-1 -3,-3 -4,-4 -2,1 -4,2 -6,3 -1,-2 -3,-3 -4,-5 -2,1 -4,2 -6,3 -2,-1 -3,-3 -5,-4 -2,1 -4,2 -5,3 -1,-1 -2,-1 -2,-2 3,-4 8,-7 14,-9zm-6 39c3,-4 7,-5 11,-5 4,1 7,4 10,8 5,3 9,7 11,13 -1,0 -1,0 -2,1 -2,-2 -3,-3 -5,-5 -2,1 -4,2 -6,3 -2,-1 -3,-3 -5,-4 -2,0 -4,1 -6,2 -1,-1 -3,-3 -4,-4 -2,1 -4,2 -6,3 -2,-2 -3,-3 -5,-5 -2,1 -4,2 -6,3 -1,0 -1,-1 -2,-1 4,-5 9,-8 15,-9zm-6 39c3,-3 7,-5 11,-4 4,0 8,3 10,7 6,3 10,8 12,14 -1,0 -2,0 -2,1 -2,-2 -4,-3 -5,-5 -2,1 -4,2 -7,3 -1,-1 -3,-3 -4,-5 -3,1 -5,2 -7,3 -1,-1 -3,-3 -5,-4 -2,1 -4,2 -6,3 -1,-2 -3,-3 -5,-5 -2,1 -4,2 -6,3 0,0 -1,-1 -2,-2 4,-4 9,-8 16,-9zm-7 41c4,-3 8,-5 12,-4 4,0 8,3 10,7 6,4 10,9 12,14 0,1 -1,1 -2,1 -2,-1 -3,-3 -5,-4 -2,1 -4,2 -6,3 -2,-2 -4,-4 -5,-5 -3,1 -5,2 -7,3 -1,-2 -3,-3 -5,-5 -2,1 -4,2 -6,3 -2,-1 -4,-3 -5,-5 -2,1 -5,2 -7,3 0,0 -1,-1 -2,-1 4,-5 10,-8 16,-10zm-7 43c4,-4 8,-6 13,-5 4,1 8,4 10,8 6,3 11,8 13,14 -1,1 -2,1 -3,1 -1,-1 -3,-3 -5,-5 -2,2 -4,3 -6,4 -2,-2 -4,-4 -6,-5 -2,1 -4,2 -6,3 -2,-2 -4,-3 -5,-5 -3,1 -5,2 -7,3 -2,-2 -4,-3 -5,-5 -2,1 -5,2 -7,3 0,0 -1,-1 -2,-1 4,-5 10,-9 16,-10zm-7 44c4,-4 9,-6 13,-5 5,1 8,4 11,8 6,4 11,9 13,15 -1,0 -2,1 -3,1 -1,-2 -3,-3 -5,-5 -2,1 -4,2 -7,3 -2,-1 -3,-3 -5,-5 -2,1 -5,2 -7,4 -2,-2 -4,-4 -5,-6 -3,2 -5,3 -7,4 -2,-2 -4,-4 -5,-5 -3,1 -5,2 -7,3 -1,-1 -2,-1 -2,-2 3,-5 9,-9 16,-10zm-7 46c4,-4 9,-6 13,-5 5,1 9,4 11,8 7,4 12,9 14,15 -1,1 -2,1 -3,2 -2,-2 -4,-4 -5,-5 -3,1 -5,2 -7,3 -2,-2 -4,-4 -6,-5 -2,1 -5,2 -7,3 -2,-2 -4,-3 -5,-5 -3,1 -5,2 -7,3 -2,-2 -4,-3 -6,-5 -2,1 -5,2 -7,3 -1,0 -1,-1 -2,-2 4,-5 10,-9 17,-10zm-271 315l-13 -23 5 -3 17 10 -8 -15 4 -2 13 22 -5 3 -17 -10 8 15 -4 3zm356 -11l1 -2c1,1 2,1 3,2 1,0 2,0 3,0 0,0 0,-1 1,-1 0,0 0,-1 -1,-1 0,-1 0,-1 -1,-1 -1,0 -1,-1 -2,-1l1 -1c0,0 1,0 1,0 0,0 0,0 0,0 -2,-1 -4,-3 -5,-5 -1,-3 -1,-7 0,-11 2,-4 4,-7 7,-8 3,-2 6,-2 9,0 3,1 5,2 7,5 0,1 1,3 1,5l-6 0c0,-2 0,-3 0,-4 -1,-1 -2,-2 -3,-2 -2,-1 -4,-1 -6,0 -1,1 -3,3 -4,6 -1,3 -1,5 0,7 0,2 2,3 3,4 2,0 3,0 4,-1 1,0 3,-1 4,-3l4 4c-2,2 -4,4 -6,4 -2,1 -4,1 -6,0 0,0 0,0 0,0 1,1 1,1 2,2 0,0 0,1 0,2 -1,1 -1,2 -2,2 -2,1 -3,0 -5,0 -2,-1 -3,-1 -4,-2zm-311 -10l-5 2 -4 -4 -10 3 0 7 -6 1 1 -28 5 -1 19 20zm-13 -6l-6 -8 0 11 6 -3zm25 -6l-1 -5 11 -3 3 10c-1,2 -2,3 -4,4 -2,2 -4,3 -6,3 -3,1 -5,1 -7,0 -3,0 -5,-1 -6,-3 -2,-2 -3,-4 -3,-6 -1,-3 -1,-6 -1,-8 1,-2 2,-4 4,-6 1,-1 3,-2 6,-3 3,-1 5,-1 8,0 2,1 3,3 4,5l-4 2c-1,-1 -2,-2 -3,-2 -1,-1 -3,-1 -4,0 -2,0 -4,1 -5,3 -1,2 -1,4 0,7 1,3 2,5 4,6 1,1 3,2 5,1 2,0 3,-1 3,-2 1,0 2,-1 3,-2l-1 -3 -6 2zm42 1l-6 1 -3 -6 -11 2 -1 7 -5 1 5 -28 5 -1 16 24zm-12 -9l-5 -8 -2 10 7 -2zm15 9l-4 -26 11 -2c3,0 5,0 6,0 1,0 2,1 3,2 1,1 2,3 2,4 0,2 0,4 -1,5 -1,2 -3,3 -5,3 1,1 3,1 3,2 1,1 2,2 4,4l4 4 -6 1 -5 -5c-2,-2 -3,-3 -3,-3 -1,-1 -1,-1 -2,-1 -1,0 -1,0 -3,0l-1 0 2 11 -5 1zm3 -16l4 -1c2,0 4,0 4,-1 1,0 1,0 2,-1 0,0 0,-1 0,-2 0,-1 -1,-1 -1,-2 -1,0 -1,-1 -2,-1 -1,0 -2,1 -4,1l-4 0 1 7zm46 10l-6 1 -3 -6 -10 1 -2 6 -5 1 8 -27 5 -1 13 25zm-11 -9l-4 -9 -3 10 7 -1zm22 -17l9 -1c2,0 4,0 5,1 2,0 3,1 4,2 1,1 2,2 3,4 1,2 1,4 1,6 0,2 0,4 -1,6 0,2 -1,3 -2,4 -1,1 -2,2 -4,3 -1,0 -3,0 -4,0l-10 1 -1 -26zm5 4l1 17 4 0c1,0 2,0 3,0 1,-1 1,-1 2,-1 0,-1 1,-2 1,-3 1,-1 1,-3 1,-5 -1,-2 -1,-3 -1,-4 -1,-2 -1,-2 -2,-3 0,-1 -1,-1 -2,-1 -1,0 -2,0 -5,0l-2 0zm45 21l-5 0 -2 -6 -11 0 -2 6 -6 0 11 -26 5 0 10 26zm-9 -10l-3 -10 -4 10 7 0zm12 10l1 -26 5 0 10 18 1 -17 5 0 -1 26 -5 0 -10 -18 -1 17 -5 0zm50 3l-6 0 -1 -6 -11 -1 -2 5 -6 0 12 -25 6 0 8 27zm-9 -11l-2 -10 -5 9 7 1zm20 12l4 -26 11 2c3,0 5,1 6,1 1,1 2,2 3,3 0,2 0,3 0,4 0,2 -1,4 -2,5 -2,1 -3,2 -6,2 1,1 2,1 3,2 0,1 1,3 2,5l3 5 -7 0 -3 -7c-1,-2 -1,-3 -2,-4 0,0 -1,-1 -1,-1 -1,0 -2,-1 -3,-1l-1 0 -1 11 -6 -1zm8 -14l3 0c3,1 5,1 5,1 1,0 1,-1 2,-1 0,-1 1,-1 1,-2 0,-1 0,-2 -1,-2 0,-1 -1,-1 -2,-1 0,-1 -1,-1 -3,-1l-4 -1 -1 7zm42 22l-6 -1 -1 -6 -10 -2 -4 5 -5 -1 15 -23 6 1 5 27zm-8 -12l-1 -10 -6 9 7 1zm11 13l6 -25 5 1 -3 11 14 -8 7 2 -13 7 6 18 -6 -2 -4 -14 -5 4 -2 7 -5 -1zm70 27l-5 -3 1 -6 -9 -5 -5 4 -5 -3 22 -18 5 3 -4 28zm-3 -14l1 -10 -7 7 6 3zm-232 -261c0,8 -5,19 -15,29 -8,10 -18,16 -26,17l0 0 -1 -5c2,-7 7,-16 14,-24 10,-11 21,-17 28,-17zm-144 -355c6,0 15,4 24,12 8,7 13,14 14,20l2 3 0 2 -4 -3c-6,-1 -14,-5 -22,-11 -8,-8 -14,-17 -14,-23zm77 1c1,5 -2,14 -8,23 -6,7 -12,13 -18,15l-2 3 -1 -2 2 -3c0,-5 2,-13 8,-21 6,-9 13,-14 19,-15zm9 50c1,6 -3,15 -9,24 -6,8 -13,14 -18,15 -1,1 -2,2 -3,3l0 -2c0,-1 1,-1 1,-2 0,-6 3,-14 9,-22 6,-9 14,-15 20,-16zm-80 1c6,0 16,4 25,11 8,7 13,15 15,21 0,1 1,1 2,2l0 2c-1,-1 -3,-2 -4,-3 -6,0 -15,-4 -23,-10 -9,-8 -15,-17 -15,-23zm5 52c7,-1 17,3 26,10 9,7 15,15 16,21 1,1 2,2 3,2l0 2c-1,0 -3,-1 -4,-2 -7,0 -16,-4 -24,-11 -10,-7 -16,-16 -17,-22zm85 -2c0,6 -3,16 -10,25 -7,8 -14,14 -20,15 -1,1 -1,2 -2,2l0 -2c0,0 0,-1 1,-1 0,-7 3,-15 9,-24 7,-9 16,-14 22,-15zm9 50c1,7 -3,17 -11,26 -6,9 -14,15 -20,16 -1,1 -2,1 -2,2l-1 -3c1,0 1,0 1,-1 0,-6 4,-15 11,-24 7,-9 16,-15 22,-16zm-88 4c7,-1 17,2 27,10 9,6 16,15 17,21 1,1 2,1 2,2l1 2c-2,-1 -3,-2 -4,-2 -7,0 -16,-4 -25,-11 -10,-7 -17,-16 -18,-22zm6 51c7,-1 18,3 28,10 10,7 16,15 18,21 1,1 1,2 2,2l0 2c-1,0 -2,-1 -3,-2 -7,0 -17,-3 -26,-10 -11,-7 -18,-16 -19,-23zm92 -4c1,7 -4,17 -12,27 -7,9 -16,14 -22,16 0,0 -1,1 -1,1l-1 -3c0,0 0,0 0,0 1,-7 5,-16 12,-25 8,-9 17,-15 24,-16zm10 51c0,7 -5,18 -13,27 -8,9 -17,15 -24,17 0,0 0,0 -1,1l0 -4c1,-7 5,-16 13,-25 8,-10 18,-16 25,-16zm-96 5c7,-1 18,2 29,9 10,7 17,15 19,22 1,0 1,1 2,1l0 3c-1,-1 -2,-2 -4,-2 -7,0 -17,-3 -27,-10 -10,-7 -18,-16 -19,-23zm6 52c7,-2 19,2 30,9 10,6 17,15 20,22 0,0 1,0 2,1l0 2c-1,0 -3,-1 -4,-2 -7,1 -17,-2 -28,-9 -11,-7 -19,-16 -20,-23zm100 -7c0,8 -5,19 -14,29 -9,9 -18,15 -25,16 0,1 -1,1 -1,1l-1 -5c2,-7 7,-16 14,-24 9,-10 19,-16 27,-17zm-94 59c7,-2 19,1 31,8 10,7 18,15 21,22l1 1 1 3 -4 -2c-7,1 -18,-2 -29,-9 -11,-7 -20,-16 -21,-23zm-9 -418c5,4 10,14 11,27 2,10 1,21 -3,26 -1,3 0,6 0,9 -1,-3 -1,-6 -4,-8 -4,-5 -8,-14 -9,-25 -1,-13 1,-24 5,-29zm129 518c1,0 2,0 3,0l0 0 22 0 0 0c1,0 2,0 3,0 1,1 2,4 2,5 0,5 -3,10 -7,10l-18 0c-4,0 -7,-5 -7,-10 0,-1 1,-4 2,-5zm-2 -18c1,0 2,1 3,1l0 0 26 0 0 0c1,0 2,-1 3,-1 1,2 2,4 2,6 0,4 -3,10 -7,10l-22 0c-4,0 -7,-6 -7,-10 0,-2 1,-4 2,-6zm-2 -18c1,0 2,0 3,0l0 0 30 0 0 0c1,0 2,0 3,0 1,1 2,4 2,6 0,4 -3,10 -7,10l-26 0c-4,0 -7,-6 -7,-10 0,-2 1,-5 2,-6zm-2 -19c1,1 2,1 3,1l0 0 34 0 0 0c1,0 2,0 3,-1 1,2 2,4 2,6 0,5 -3,11 -7,11l-30 0c-4,0 -7,-6 -7,-11 0,-2 1,-4 2,-6zm-2 -19c1,1 2,1 3,1l0 0 38 0 0 0c1,0 2,0 3,-1 1,2 2,5 2,7 0,4 -3,10 -7,10l-34 0c-4,0 -7,-6 -7,-10 0,-2 1,-5 2,-7zm-2 -19c1,1 2,1 3,1l0 0 42 0 0 0c1,0 2,0 3,-1 1,2 2,5 2,7 0,4 -3,11 -7,11l-38 0c-4,0 -7,-7 -7,-11 0,-2 1,-5 2,-7zm-2 -19c1,1 2,1 3,1l0 0 46 0 0 0c1,0 2,0 3,-1 1,2 2,5 2,7 0,4 -3,11 -7,11l-42 0c-4,0 -7,-7 -7,-11 0,-2 1,-5 2,-7zm-2 -19c1,0 2,1 3,1l0 0 50 0 0 0c1,0 2,-1 3,-1 2,2 2,4 2,6 0,5 -3,12 -7,12l-46 0c-4,0 -7,-7 -7,-12 0,-2 0,-4 2,-6zm-2 -20c1,0 2,1 3,1l0 0 54 0 0 0c1,0 2,-1 3,-1 2,2 3,5 3,7 0,5 -4,11 -8,11l-50 0c-4,0 -8,-6 -8,-11 0,-2 1,-5 3,-7zm-3 -20c2,0 3,1 4,1l0 0 58 0 0 0c1,0 2,-1 4,-1 1,2 2,5 2,7 0,5 -4,11 -8,11l-54 0c-4,0 -8,-6 -8,-11 0,-2 1,-5 2,-7zm-2 -21c1,1 3,1 4,1l0 0 62 0 0 0c1,0 3,0 4,-1 1,2 2,5 2,8 0,4 -4,11 -8,11l-58 0c-4,0 -8,-7 -8,-11 0,-3 1,-6 2,-8zm-2 -21c1,1 3,1 4,1l0 0 66 0 0 0c1,0 3,0 4,-1 1,3 2,6 2,8 0,5 -4,12 -8,12l-62 0c-4,0 -8,-7 -8,-12 0,-2 1,-5 2,-8zm-2 -21c1,1 2,1 4,1l0 0 70 0 0 0c2,0 3,0 4,-1 2,3 3,5 3,8 0,5 -4,12 -9,12l-66 0c-5,0 -9,-7 -9,-12 0,-3 1,-5 3,-8zm-2 -21c1,0 2,1 3,1l0 0 76 0 0 0c1,0 2,-1 3,-1 2,2 3,5 3,8 0,5 -4,12 -9,12l-70 0c-5,0 -9,-7 -9,-12 0,-3 1,-6 3,-8zm-3 -22c1,1 3,1 4,1l0 0 80 0 0 0c1,0 2,0 4,-1 1,2 3,5 3,8 0,5 -5,12 -9,12l-76 0c-4,0 -9,-7 -9,-12 0,-3 1,-6 3,-8zm-2 -22c1,0 2,1 4,1l0 0 84 0 0 0c1,0 3,-1 4,-1 2,2 3,5 3,8 0,5 -4,12 -9,12l-80 0c-5,0 -9,-7 -9,-12 0,-3 1,-6 3,-8zm34 316c1,1 2,1 3,1l0 0 18 0 0 0c1,0 2,0 3,-1 1,2 2,4 2,6 0,4 -3,10 -7,10l-15 0c-3,0 -6,-6 -6,-10 0,-2 1,-4 2,-6zm2 18c0,0 1,1 2,1l0 0 15 0 0 0c2,0 3,-1 3,-1 1,1 2,2 2,5 0,3 -3,10 -6,10l-12 0c-3,0 -6,-7 -6,-10 0,-3 1,-4 2,-5zm59 -431c6,0 11,7 11,13 0,6 -5,13 -11,13l-98 0c-6,0 -11,-7 -11,-13 0,-6 5,-13 11,-13l98 0zm-102 28c1,0 2,1 4,1l0 0 98 0 0 0c2,0 3,-1 4,-1 2,2 4,6 4,9 0,5 -5,12 -10,12 -31,0 -63,0 -94,0 -5,0 -10,-7 -10,-12 0,-3 2,-7 4,-9zm2 23c1,1 3,1 4,1l0 0 94 0 0 0c1,0 3,0 4,-1 2,3 3,6 3,9 0,5 -5,12 -10,12 -29,0 -59,0 -88,0 -6,0 -10,-7 -10,-12 0,-3 1,-6 3,-9zm3 23c1,1 2,1 4,1l0 0 88 0 0 0c2,0 3,0 4,-1 2,3 4,6 4,9 0,5 -5,12 -10,12 -28,0 -56,0 -84,0 -5,0 -10,-7 -10,-12 0,-3 2,-6 4,-9zm48 -225c4,0 7,7 7,16 0,9 -3,16 -7,16 -4,0 -7,-7 -7,-16 0,-9 3,-16 7,-16zm-16 72l13 11 -25 0 12 -11zm0 57l-12 -11 25 0 -13 11zm32 0l-13 -11 25 0 -12 11zm31 0l-13 -11 23 0 0 0c1,0 2,0 2,0l-12 11zm-94 0l-12 -11c0,0 1,0 2,0l0 0 23 0 -13 11zm63 -57l12 11 -25 0 13 -11zm31 0l12 11c0,0 -1,0 -2,0l0 0 -23 0 13 -11zm-94 0l13 11 -23 0 0 0c-1,0 -2,0 -2,0l12 -11zm47 -38c33,0 61,21 61,47l-13 -11 -1 -2 -2 2 -14 13 -14 -13 -1 -2 -2 2 -14 13 -14 -13 -2 -2 -1 2 -14 13 -14 -13 -2 -2 -2 2 -12 11c0,-26 28,-47 61,-47zm48 115l-96 0c-8,-8 -13,-18 -13,-29l12 11 2 2 2 -2 14 -13 14 13 1 2 2 -2 14 -13 14 13 2 2 1 -2 14 -13 14 13 2 2 1 -2 13 -11c0,11 -5,21 -13,29zm9 -63c8,0 14,6 14,13l0 3c0,7 -6,13 -14,13l-114 0c-8,0 -14,-6 -14,-13l0 -3c0,-7 6,-13 14,-13l114 0zm189 536l-6 -5 0 -4 -5 0 -32 -25c5,-5 7,-11 7,-17l0 0c0,-1 0,-3 0,-5l8 -2 106 35c-18,14 -56,40 -78,23zm-40 -226c0,-1 0,-2 0,-2 -1,-9 -3,-18 -5,-25l85 -284c19,27 41,62 25,95l-105 216zm-36 137c2,0 3,-1 4,-2 20,-7 26,-38 23,-64 9,26 16,59 -2,76 -6,-5 -15,-9 -25,-10zm11 -111c7,34 4,76 -22,90 -11,6 -24,5 -37,-1 17,-3 24,-6 34,-15 19,-19 23,-53 25,-74zm6 16c14,38 8,77 -13,90 -8,5 -21,6 -32,2 -9,-2 -19,-9 -28,-19 8,3 14,7 20,8 18,3 27,-2 36,-10 14,-12 21,-44 17,-71zm18 96c4,-8 5,-19 4,-30l32 -28c2,11 0,39 -16,47l-20 11zm5 29c-1,-4 -3,-8 -6,-11 -1,-3 -4,-5 -6,-7 1,-2 3,-3 4,-5l42 -23c-1,11 -11,40 -28,44l-6 2zm-1 -64c-1,-3 -2,-6 -2,-10 -1,-4 -2,-8 -3,-12 -1,0 -1,-1 -1,-2l33 -49c4,11 8,41 -5,53l-22 20zm-8 -29c-2,-5 -4,-10 -5,-11 -1,-5 -3,-10 -4,-15l23 -57c7,10 17,36 7,51l-21 32zm-11 -32c-2,-3 -3,-6 -5,-8 -1,-6 -2,-9 -3,-15l7 -62c3,3 8,13 11,25 3,11 4,24 0,34l-10 26zm-14 -6c-7,60 -34,73 -62,76 15,-14 23,-29 29,-51l64 -279 -31 254zm53 -396c19,18 47,61 38,91l-68 235c-2,-3 -4,-8 -6,-9l-4 -5 21 -170 2 -30 17 -112zm-1 375c-2,-10 -7,-22 -11,-27l119 -240c12,23 23,91 4,116l-112 151zm16 120c1,-5 3,-11 3,-14l1 -6 -6 3 -5 3c0,-1 1,-2 1,-3 2,-3 4,-8 5,-12l152 -23c-16,21 -39,53 -70,52l-81 0zm-2 4l117 4c-16,15 -51,49 -76,41l-60 -19c1,0 1,0 1,0 3,-2 5,-4 7,-6 5,-6 9,-13 11,-20zm2 -37c1,-6 1,-15 1,-19l163 -78c-8,25 -27,72 -58,78l-106 19zm2 -24l-3 -4 -4 3c2,-2 2,-4 3,-7 2,-6 2,-14 1,-21l164 -136c3,24 -10,90 -43,107l-118 58zm-3 -33c-1,-5 -3,-13 -4,-16l-2 -5 -4 5 -5 7c0,0 0,0 0,0 2,-6 1,-11 1,-17l149 -192c18,22 9,94 -16,116l-119 102zm-367 187c6,-6 15,-9 24,-12 9,-3 19,-5 29,-7 11,-1 21,-2 31,-2l80 0c10,0 20,1 31,2 10,2 20,4 29,7 9,3 18,6 24,12 5,3 6,9 2,13 -3,5 -9,6 -14,2 -6,-4 -13,-8 -22,-10 -8,-3 -17,-4 -26,-5 -9,-1 -19,-2 -28,-2l-73 0c-8,0 -18,1 -27,2 -9,1 -18,2 -26,5 -9,2 -16,6 -22,10 -5,4 -11,3 -14,-2 -4,-4 -3,-10 2,-13zm157 -24c11,-8 17,-21 17,-34 0,-1 0,-1 0,-1 9,3 24,1 37,-6 3,-1 5,-3 8,-4 9,8 15,19 16,31 1,8 -1,17 -5,25 -2,-1 -3,-2 -5,-2 -5,-2 -10,-3 -15,-4 -5,-1 -10,-2 -15,-2l0 0c-5,-1 -11,-2 -16,-2 -5,-1 -10,-1 -15,-1l-7 0zm69 -112c3,9 5,16 10,22 7,10 18,15 25,18 1,1 3,1 4,1 -7,2 -14,3 -20,2 -5,0 -12,-1 -16,-2 -4,-5 -8,-5 -11,-1 -1,-13 3,-33 8,-40zm73 137c-10,-9 -19,-18 -25,-25 -6,-8 -8,-13 -11,-20 -4,-9 -3,-17 3,-25 3,-3 6,-6 10,-7 16,-5 32,4 34,20 1,5 0,9 -2,13 -2,5 -6,10 -11,13 10,6 22,11 32,13 11,3 21,4 31,4l2 0 0 2c-1,4 -3,9 -7,14 -3,3 -7,7 -12,9 -5,2 -11,3 -17,3 -8,-1 -17,-5 -27,-14zm-32 -93c48,-9 79,26 57,51 -5,6 -14,11 -21,12 -1,-1 -1,-1 -1,-1 3,-2 5,-5 7,-7 1,-1 1,-2 1,-2 1,-1 1,-2 1,-3l0 0 0 0 0 0c2,-3 3,-7 3,-11 0,0 -1,-1 -1,-2 0,0 0,-1 0,-2l0 0 0 0c0,-4 -2,-7 -4,-10 0,-1 0,-2 -1,-2 0,-1 -1,-1 -1,-2l0 0c-3,-3 -7,-6 -11,-7 -1,-1 -2,-1 -3,-1 -1,0 -1,-1 -2,-1l0 0c-5,0 -9,0 -12,0 -1,0 -1,1 -2,1 -1,0 -1,0 -2,0l0 0 0 0c-3,1 -7,3 -9,5l0 0c0,1 -1,1 -1,2 -1,0 -1,1 -2,1l0 0 0 0 0 0c-2,3 -3,6 -4,9 0,0 0,1 -1,2 0,0 0,1 0,1l0 1c0,3 0,6 0,9 0,1 1,1 1,2 0,0 0,1 0,2l0 0c0,0 0,0 0,0l0 0c0,0 0,0 0,0l0 0c0,0 0,0 0,0l0 0 0 0c0,0 0,0 0,0l0 0c1,3 3,7 5,11 2,4 5,8 8,12 3,4 7,8 11,12 4,4 9,8 14,13 6,6 13,9 18,11 12,9 25,19 40,30 9,6 -68,-17 -101,-30 1,-3 1,-6 1,-8 0,-3 -2,-6 -5,-9l0 0 0 0c-3,-2 -7,-5 -12,-7 -2,-1 -4,-2 -6,-3 4,-6 6,-13 6,-21 0,-15 -7,-28 -18,-36 8,-7 13,-15 10,-22 11,4 25,2 37,0zm-52 22c-4,3 -18,10 -26,10 -6,1 -12,-2 -12,-7 -1,-5 4,-6 12,-7 7,0 12,-2 19,-6 6,-4 9,-13 14,-15 5,-2 8,4 6,11 -2,5 -8,11 -13,14zm-234 -22c12,2 26,4 37,0 -3,7 2,15 10,22 -11,8 -18,21 -18,36 0,8 2,15 6,21 -2,1 -4,2 -6,3 -5,2 -9,5 -12,7l0 0 0 0 0 0c-3,3 -5,6 -5,9 0,2 0,5 1,8 -33,13 -110,36 -101,30 15,-11 28,-21 40,-30 5,-2 12,-5 18,-11 5,-5 10,-9 14,-13 4,-4 8,-8 11,-12 3,-4 6,-8 8,-12 2,-4 4,-8 5,-11l0 0c0,0 0,0 0,0l0 0 0 0c0,0 0,0 0,0l0 0c0,0 0,0 0,0l0 0c0,0 0,0 0,0l0 0c0,-1 0,-2 0,-2 0,-1 1,-1 1,-2 0,-3 0,-6 0,-9l0 -1c0,0 0,-1 0,-1 -1,-1 -1,-2 -1,-2 -1,-3 -2,-6 -4,-9l0 0 0 0 0 0c-1,0 -1,-1 -2,-1 0,-1 -1,-1 -1,-2l0 0c-3,-2 -6,-4 -9,-5l0 0 0 0c-1,0 -1,0 -2,0 -1,0 -1,-1 -2,-1 -4,0 -7,0 -12,0l0 0c-1,0 -2,1 -2,1 -1,0 -2,0 -3,1 -4,1 -8,4 -11,7l0 0c0,1 -1,1 -1,2 -1,0 -1,1 -1,2 -2,3 -4,6 -4,10l0 0 0 0c0,1 0,2 0,2 -1,1 -1,2 -1,2 0,4 1,8 3,11l0 0 0 0 0 0c0,1 0,2 1,3 0,0 0,1 1,2 2,2 4,5 7,7 0,0 -1,0 -1,1 -7,-1 -16,-6 -21,-12 -22,-25 9,-60 57,-51zm110 68l-7 0c-5,0 -10,0 -15,1 -5,0 -11,1 -16,2 -5,0 -10,1 -15,2 -5,1 -10,2 -15,4 -2,0 -3,1 -5,2 -4,-8 -6,-17 -6,-25 2,-12 8,-23 17,-31 2,1 5,3 8,4 13,7 28,9 37,6 0,0 0,0 0,1 0,13 6,26 17,34zm-58 -46c-5,-3 -11,-9 -13,-14 -2,-7 1,-13 6,-11 4,2 8,11 14,15 7,4 12,6 19,6 8,1 13,2 12,7 0,5 -6,8 -12,7 -8,0 -22,-7 -26,-10zm-11 -66c5,7 9,27 8,40 -3,-4 -7,-4 -11,1 -4,1 -11,2 -16,2 -6,1 -13,0 -20,-2 1,0 3,0 4,-1 7,-3 18,-8 25,-18 5,-6 7,-13 10,-22zm-73 137c-10,9 -19,13 -27,14 -6,0 -12,-1 -17,-3 -5,-2 -9,-6 -12,-9 -4,-5 -6,-10 -7,-14l0 -2 2 0c10,0 20,-1 31,-4 10,-2 22,-7 32,-13 -5,-3 -9,-8 -11,-13 -2,-4 -3,-8 -2,-13 2,-16 18,-25 34,-20 4,1 7,4 10,7 6,8 7,16 3,25 -3,7 -5,12 -11,20 -6,7 -15,16 -25,25zm-53 -218l-113 -151c-19,-25 -7,-93 5,-116l119 240c-4,5 -9,17 -11,27zm-18 211c-22,17 -60,-9 -78,-23l106 -35 8 2c0,2 -1,4 0,5l0 0c0,6 2,12 7,17l-32 25 -5 0 0 4 -6 5zm4 -87c2,7 6,14 11,20 2,2 4,4 7,6 0,0 0,0 1,0l-60 19c-25,8 -60,-26 -76,-41l117 -4zm-2 -4l-81 0c-31,1 -54,-31 -70,-52l152 23c1,4 3,9 5,12 0,1 1,2 1,3l-5 -3 -6 -3 1 6c0,3 2,9 3,14zm0 -33l-106 -19c-31,-6 -50,-53 -58,-78l163 78c0,4 0,13 1,19zm-2 -24l-118 -58c-33,-17 -46,-83 -43,-107l164 136c-1,7 -1,15 1,21 1,3 1,5 2,7l-4 -3 -2 4zm3 -33l-119 -102c-25,-22 -34,-94 -16,-116l149 192c0,6 -1,11 1,17 0,0 0,0 0,0l-5 -7 -4 -5 -2 5c-1,3 -3,11 -4,16zm14 -405l17 112 2 30 21 170 -5 5c-1,1 -3,6 -5,9l-68 -235c-9,-30 19,-73 38,-91zm19 527l-6 -2c-17,-4 -27,-33 -28,-44l42 23c1,2 3,3 4,5 -2,2 -5,4 -6,7 -3,3 -5,7 -6,11zm40 -30c-10,1 -19,5 -25,10 -18,-17 -11,-50 -2,-76 -3,26 3,57 22,64 2,1 3,2 5,2zm-35 1l-20 -11c-16,-8 -18,-36 -16,-47l32 28c-1,11 0,22 4,30zm-4 -35l-22 -20c-13,-12 -9,-42 -5,-53l33 49c0,1 0,2 -1,2 -1,4 -2,8 -3,12 0,4 -1,7 -2,10zm8 -29l-21 -32c-10,-15 0,-41 7,-51l23 57c-1,5 -3,10 -4,15 -1,1 -3,6 -5,11zm14 -32c-4,27 3,59 17,71 9,8 18,13 36,10 6,-1 12,-5 20,-8 -9,10 -19,17 -28,19 -11,4 -24,3 -32,-2 -21,-13 -27,-52 -13,-90zm6 -16c2,21 6,55 25,74 10,9 17,12 34,15 -13,6 -26,7 -37,1 -26,-14 -29,-56 -22,-90zm-9 16l-10 -26c-8,-19 4,-52 11,-59l7 62c-1,6 -2,9 -3,15 -2,2 -3,5 -5,8zm-16 -42l-105 -216c-16,-33 6,-68 25,-95l85 284c-2,7 -5,16 -5,25 0,0 0,1 0,2zm30 36l-31 -254 64 279c6,22 14,37 29,51 -29,-3 -55,-16 -62,-76zm715 -225l-206 633 -666 0 -206 -633 539 -391 539 391zm-537 -399l-2 -1 -2 1 -543 395 -2 1 1 3 207 638 1 3 2 0 672 0 2 0 1 -3 207 -638 1 -3 -2 -1 -543 -395zm199 783l28 22c-6,-1 -16,-2 -23,-4 -7,-2 -15,-4 -23,-8 6,-2 14,-6 18,-10zm-402 0c4,4 11,8 18,10 -8,4 -16,6 -23,8 -7,2 -17,3 -23,4l28 -22zm452 98c1,-1 3,-3 4,-5l0 0c0,-1 1,-3 1,-4 -1,-2 -1,-3 -2,-5 -1,-1 -3,-2 -5,-4 -10,-5 -20,-13 -35,-24 -1,0 -2,-1 -3,-2 0,0 0,0 0,0 3,0 6,-1 9,-2 5,-3 9,-7 13,-10 3,-4 5,-9 6,-12l5 4c13,10 28,8 44,1 15,-6 29,-16 39,-23l7 -5 -8 -3 -33 -10c11,-1 23,-6 34,-14 14,-9 27,-21 35,-29l8 -7 -11 0 -23 -1c27,-4 45,-28 59,-48 1,-1 1,-1 4,-5l6 -8 -11 2 -43 6 5 -1c17,-3 29,-16 38,-32 9,-16 14,-33 18,-46l3 -10 -9 5 -31 14c4,-2 7,-4 9,-7 4,-4 8,-9 11,-14 15,-26 18,-64 16,-82l-1 -8 -35 29c17,-25 25,-86 7,-109l-4 -4 -3 4 -27 35c1,-2 2,-4 3,-6 2,-5 3,-11 3,-18 3,-31 -5,-72 -14,-89l-4 -8 -4 8 -12 25c3,-13 0,-26 -4,-38 -6,-17 -17,-33 -27,-46l-5 -8 -2 9 -9 30c0,-2 0,-3 0,-5 0,-4 -1,-9 -2,-14 -7,-27 -26,-49 -45,-68l-24 159 -63 270c-2,11 -5,20 -10,28 -4,8 -10,15 -17,22l-1 1c-1,-2 -1,-3 -2,-4 -1,-4 -3,-7 -4,-12l-1 -5 -4 4c-4,5 -7,18 -9,29 0,3 0,5 0,7 0,2 0,4 0,6l0 0 0 0 0 3c0,0 -1,1 -1,2 -5,7 -9,10 -17,13 -2,1 -5,1 -9,1 -4,0 -7,1 -10,2 -3,2 -5,4 -4,8l0 0c0,1 0,0 0,1l0 0c0,1 1,3 2,4 -1,0 -1,0 -1,0l0 0 -4 -1 0 4c0,13 -5,24 -14,31 -2,2 -3,3 -5,4l-56 0c-2,-1 -3,-2 -5,-4 -9,-7 -14,-18 -14,-31l0 -4 -4 1 0 0c0,0 0,0 -1,0 1,-1 2,-3 2,-4l0 0c0,-1 0,0 0,-1l0 0c1,-4 -1,-6 -4,-8 -3,-1 -6,-2 -10,-2 -4,0 -7,0 -9,-1 -8,-3 -12,-6 -17,-13 0,-1 -1,-2 -1,-2l0 -3 0 0 0 0c0,-2 0,-4 0,-6 0,-2 0,-4 0,-7 -2,-11 -5,-24 -9,-29l-4 -4 -1 5c-2,5 -3,8 -4,12 -1,1 -1,2 -2,4l-1 -1c-7,-7 -13,-14 -17,-22 -5,-8 -8,-17 -10,-28l-63 -270 -24 -159c-19,19 -38,41 -45,68 -1,5 -2,10 -2,14 0,2 0,3 0,5l-9 -30 -2 -9 -5 8c-10,13 -21,29 -27,46 -4,12 -7,25 -4,38l-12 -25 -4 -8 -4 8c-9,17 -18,58 -14,89 0,7 1,13 3,18 1,2 2,4 3,6l-27 -35 -3 -4 -4 4c-18,23 -10,84 7,109l-35 -29 -1 8c-2,18 1,56 16,82 3,5 7,10 11,14 2,3 5,5 9,7l-31 -14 -9 -5 3 10c4,13 9,30 18,46 9,16 21,29 38,32l5 1 -43 -6 -11 -2 6 8c3,4 3,4 4,5 14,20 32,44 59,48l-23 1 -11 0 8 7c8,8 20,20 35,29 11,8 23,13 34,14l-33 10 -8 3 7 5c10,7 24,17 39,23 16,7 31,9 44,-1l5 -4c1,3 3,8 6,12 4,3 8,7 13,10 3,1 6,2 9,2 0,0 0,0 0,0 -1,1 -2,2 -3,2 -15,11 -25,19 -35,24 -2,2 -4,3 -5,4 -1,2 -2,3 -2,5 0,1 0,3 1,4l0 0c1,2 3,4 4,5 2,1 3,1 4,2 1,0 2,0 2,1l0 1 0 0 0 0c1,1 3,3 4,5 2,2 3,3 5,5 6,10 10,22 12,34 -2,3 -3,5 -2,7 0,3 1,4 2,5 1,2 3,3 5,3 3,0 6,0 10,-2l0 0c0,0 1,0 1,-1l0 0c1,0 1,0 2,-1l0 0c3,-2 4,-4 6,-6 2,-2 5,-5 13,-10 6,-4 17,-10 30,-15 46,-19 97,-16 146,-16 3,0 6,0 8,0l0 0 3 0c0,0 0,0 0,0l3 0 0 0c2,0 5,0 8,0 49,0 100,-3 146,16 13,5 24,11 30,15 8,5 11,8 13,10 2,2 3,4 6,6l0 0c1,1 1,1 2,1l0 0c0,1 1,1 1,1l0 0c4,2 7,2 10,2 2,0 4,-1 5,-3 1,-1 2,-2 2,-5 1,-2 0,-4 -2,-7 2,-12 6,-24 12,-34 2,-2 3,-3 4,-5 2,-2 4,-4 5,-5l0 0 0 0 0 -1c0,-1 1,-1 2,-1 1,-1 2,-1 4,-2zm-381 -441l0 0c0,0 0,0 0,0l0 0zm0 0l0 0c0,0 0,0 0,0zm-20 -190l0 0c0,0 0,0 0,0l0 0c0,0 0,0 0,0l0 0zm0 0l0 0c0,0 0,0 0,0zm130 466c-33,7 -47,-4 -50,-25l-2 -11 1 -1c2,0 5,-1 7,-2 9,-4 18,-12 24,-20 1,-2 2,-3 3,-5 3,-5 6,-9 7,-14 0,2 1,3 2,4 0,1 1,2 2,3 -2,2 -3,5 -3,8l0 0 0 0c0,3 1,6 3,8 0,1 1,2 2,3 -2,2 -2,5 -2,8l0 0 0 0c0,2 0,6 2,8 0,1 1,2 2,2 -2,3 -2,6 -2,8l0 0 0 0c0,3 1,6 2,9 1,0 1,1 2,2 -2,2 -2,5 -2,8l0 0 0 0c0,2 0,5 2,7zm147 -452c-4,1 -8,3 -11,5 -1,1 -1,1 -2,2 0,0 0,0 0,1l-1 -1 -1 2c0,0 0,0 0,1l0 0c-1,0 -1,1 -2,3 0,2 1,5 3,8 0,1 1,1 1,2l0 0c1,0 1,1 1,1 2,4 4,7 8,10 0,0 0,0 0,0 0,0 -1,0 -1,1 0,0 -1,0 -1,1 -4,1 -8,2 -11,5 -1,1 -1,1 -2,2 0,0 0,0 -1,1l0 -1 -1 2c-1,0 -1,0 -1,1 0,0 0,1 -1,3 0,2 1,6 3,9 0,0 1,1 1,1 1,1 1,1 1,1 2,4 4,8 8,10 0,1 0,1 0,1 0,0 0,0 -1,1 0,0 -1,0 -1,1 -4,1 -8,3 -11,5 -1,1 -2,1 -2,2 0,0 -1,1 -1,1l-1 -1 -1 2c0,1 0,1 0,1 -1,1 -1,1 -1,3 -1,2 0,6 3,9 0,1 0,1 1,2 0,0 1,1 1,1 1,4 4,8 8,11l0 0c0,0 0,0 1,0 -1,0 -1,0 -2,1 0,0 -1,0 -1,1 -5,1 -9,3 -12,6 -1,0 -1,1 -2,1 0,1 0,1 -1,1l0 0 -2 2c0,0 0,0 0,0 0,1 -1,2 -1,4 0,2 1,6 3,9 0,1 1,1 1,2 1,0 1,1 2,1 1,4 4,8 8,11l0 0c0,0 0,0 0,0 0,1 -1,1 -1,1 -1,1 -1,1 -1,1 -5,1 -9,3 -13,6 0,1 -1,2 -1,2l0 0c-1,1 -1,1 -1,1l-1 0 -1 2c0,0 -1,0 -1,0l0 0c0,1 0,1 -1,4 0,2 1,6 3,9 1,1 1,2 2,2 0,1 0,1 1,1 1,5 4,9 8,12l0 0c1,0 1,0 1,0 0,0 0,0 0,0 0,0 -1,1 -2,1l0 0c0,1 0,1 -1,1 -5,1 -9,4 -12,7 -1,0 -2,1 -2,1 -1,1 -1,1 -1,2l-1 -1 -1 2c0,0 -1,0 -1,1 0,0 0,1 -1,3 0,3 1,7 3,10 1,1 1,1 2,2l0 0c0,0 1,1 1,1 1,5 5,9 9,12l0 0c0,0 1,0 1,0 0,0 0,0 0,0 -1,1 -2,1 -2,2 -1,0 -1,0 -2,1 -5,1 -9,3 -13,6 0,1 -1,2 -2,2l0 0c0,1 0,1 -1,1l0 0 -2 2c0,0 0,0 0,0l0 0c0,1 -1,2 -1,4 -1,3 1,7 3,10 0,1 1,2 2,2l0 0c0,1 0,1 1,2 1,4 5,8 9,11 0,1 1,1 1,1 0,0 0,0 0,1 -1,0 -2,0 -2,1 -1,0 -1,1 -1,1 -6,1 -10,3 -14,7 -1,0 -1,1 -2,2 0,0 -1,0 -1,1l-1 -1 -1 2c0,1 0,1 0,1l0 0c-1,1 -1,1 -2,4 0,2 1,7 4,10 0,1 1,2 1,2 1,1 1,1 2,2 1,4 4,9 9,12l0 0c0,0 1,1 2,1 -1,0 -1,0 -1,1 -1,0 -2,0 -2,1 -1,0 -1,1 -2,1 -5,1 -10,4 -14,7 0,0 -1,1 -2,2 0,0 -1,1 -1,1l-1 0 -1 2c0,0 0,0 0,0l0 0c-1,1 -1,2 -2,4 0,3 1,7 4,11 0,1 1,1 1,2 1,1 1,1 2,2 1,5 5,9 9,12l0 0c1,1 2,1 3,1 -1,1 -1,1 -2,1 -1,1 -1,1 -2,2 0,0 -1,1 -1,1 -6,1 -11,4 -14,7 -1,1 -2,1 -3,2 0,1 -1,1 -1,2l-1 -1 -1 2c0,0 0,1 0,1 -1,1 -1,1 -2,4 0,2 1,7 4,11 0,0 1,1 1,2 1,0 1,1 2,1 1,5 5,10 10,13 1,1 2,1 3,2 1,1 3,1 5,2l-1 7c-3,21 -17,32 -50,25 2,-2 2,-5 2,-7l0 0 0 0c0,-3 0,-6 -2,-8 1,-1 1,-2 2,-2 1,-3 2,-6 2,-9l0 0 0 0c0,-2 0,-5 -2,-8 1,0 1,-1 2,-2 2,-2 2,-6 2,-8l0 0 0 0c0,-3 0,-6 -2,-8 1,-1 2,-2 2,-3 2,-2 3,-5 3,-8l0 0 0 0c0,-3 -1,-6 -3,-8 1,-1 2,-2 2,-3 2,-2 3,-5 3,-8l0 0 0 0c0,-3 -1,-6 -3,-8 1,-1 2,-2 2,-3l0 0c2,-2 3,-6 3,-9l0 0 0 0c0,-2 -1,-5 -3,-8 1,-1 2,-1 2,-2 2,-3 3,-6 3,-9l0 0 0 0c0,-3 -1,-6 -2,-9 0,0 1,-1 2,-2 1,-3 2,-6 2,-9l0 0 0 0c0,-3 -1,-6 -2,-9 0,-1 1,-1 2,-2 2,-3 3,-6 3,-9l0 0 0 0c0,-3 -1,-7 -3,-9 1,-1 1,-2 2,-3 2,-3 3,-6 3,-9l0 0 0 0c0,-3 -1,-6 -3,-9 1,-1 2,-2 2,-3 2,-2 3,-6 3,-9l0 0 0 0c0,-3 -1,-7 -3,-9 1,-1 2,-2 3,-3 2,-3 3,-6 3,-9l0 0 0 0c0,-3 -1,-7 -3,-10 0,0 0,0 0,0 1,0 1,-1 2,-2 2,-3 3,-7 3,-10l0 0 0 0c0,-3 -1,-7 -3,-9 0,0 0,-1 0,-1 1,0 2,-1 2,-2 2,-3 4,-7 4,-10l0 0 0 0c0,-3 -2,-7 -4,-10 0,0 0,0 0,0 1,-1 2,-2 3,-3 2,-2 3,-6 3,-9l0 0 0 0c0,-4 -1,-7 -3,-10 0,0 0,0 0,0 1,-1 2,-2 2,-3 3,-3 4,-7 4,-10l0 0 0 0c0,-3 -1,-7 -4,-10 0,0 0,0 0,0 1,-1 2,-2 3,-3 2,-3 4,-7 4,-10l0 0 0 0c0,-4 -2,-7 -4,-10 0,-1 0,-1 0,-1 1,-1 2,-2 2,-3 3,-3 4,-7 4,-10l0 0 0 0c0,-3 -1,-7 -4,-10 -1,-3 -4,-4 -7,-5 8,-9 13,-19 13,-30l0 0c0,-1 0,-1 0,-2 0,0 0,0 0,0l0 0c0,0 0,0 0,0 2,-1 3,-2 5,-4 3,-3 5,-7 5,-11l0 0 0 -3 0 0c0,-4 -2,-8 -5,-11 -2,-2 -3,-3 -5,-4 0,0 0,0 0,0l0 0c0,0 0,0 0,0 0,-1 0,-1 0,-2l0 0c0,-14 -8,-27 -19,-36 -10,-8 -24,-13 -39,-14 0,-1 1,-2 1,-3 2,-4 3,-8 3,-13l0 0 0 0c0,-5 -1,-9 -3,-12 -1,-4 -4,-7 -7,-7l0 0 0 0c-3,0 -6,3 -7,7 -2,3 -3,7 -3,12l0 0 0 0c0,5 1,9 3,13 0,1 1,2 1,3 -15,1 -29,6 -39,14 -11,9 -19,22 -19,36l0 0c0,1 0,1 0,2 0,0 0,0 0,0l0 0c0,0 0,0 0,0 -2,1 -4,2 -5,4 -3,3 -5,7 -5,11l0 0 0 3 0 0c0,4 2,8 5,11 1,2 3,3 5,4 0,0 0,0 0,0l0 0c0,0 0,0 0,0 0,1 0,1 0,2l0 0c0,11 5,21 13,30 -3,1 -6,2 -8,5 -2,3 -3,7 -3,10l0 0 0 0c0,3 1,7 3,10 1,1 2,2 3,3 0,0 0,0 0,1 -2,3 -4,6 -4,10l0 0 0 0c0,3 2,7 4,10 1,1 2,2 3,3 0,0 0,0 0,0 -3,3 -4,7 -4,10l0 0 0 0c0,3 1,7 4,10 0,1 1,2 2,3 0,0 0,0 0,0 -2,3 -3,6 -3,10l0 0 0 0c0,3 1,7 3,9 1,1 2,2 3,3 0,0 0,0 0,0 -2,3 -4,7 -4,10l0 0 0 0c0,3 2,7 4,10 0,1 1,2 2,2 0,0 0,1 0,1 -2,2 -3,6 -3,9l0 0 0 0c0,3 1,7 3,10 1,1 1,2 2,2 0,0 0,0 0,0 -2,3 -3,7 -3,10l0 0 0 0c0,3 1,6 3,9 1,1 2,2 3,3 -2,2 -3,6 -3,9l0 0 0 0c0,3 1,7 3,9 0,1 1,2 2,3 -2,3 -3,6 -3,9l0 0 0 0c0,3 1,6 3,9 1,1 1,2 2,3 -2,2 -3,6 -3,9l0 0 0 0c0,3 1,6 3,9 1,1 1,1 2,2 -1,3 -2,6 -2,9l0 0 0 0c0,3 1,6 2,9 1,1 2,2 2,2 -1,3 -2,6 -2,9l0 0 0 0c0,3 1,6 3,9 0,1 1,1 2,2 -2,3 -3,6 -3,8l0 0 0 0c0,3 1,7 3,9l0 0c0,1 1,2 2,3 -1,1 -1,2 -2,3 -3,0 -6,0 -8,2 -10,3 -19,11 -25,19 -2,2 -3,3 -4,5 -3,4 -5,9 -7,13l-5 -40 1 -1c5,-1 11,-4 18,-10 1,-1 2,-2 3,-3 2,-1 3,-2 4,-4 1,-1 0,0 0,0l0 0c7,-7 11,-15 13,-22 1,-1 1,-3 1,-4 0,-1 1,-3 1,-4 0,0 0,0 0,0l-1 -2 -2 0c-5,0 -12,4 -19,10 -2,1 -3,2 -4,3 -2,2 -3,3 -4,4l0 0c0,0 0,0 0,0 -6,7 -11,14 -13,21 0,0 0,0 0,1l-6 -40 1 -2c5,-1 11,-4 17,-9 2,-1 3,-2 4,-4 1,-1 2,-2 3,-3l0 0 0 0 0 0c7,-8 11,-15 13,-22l0 0c0,-1 0,-3 1,-4 0,-1 0,-2 0,-3l0 -3 -2 1c-6,0 -12,3 -19,9 -1,1 -3,2 -4,4 -1,1 -3,2 -4,4l0 0 0 0c-5,6 -10,13 -12,19 0,1 0,1 0,2l-6 -40 2 -2c5,-2 11,-5 16,-10 1,-1 2,-2 3,-3 1,-1 3,-3 4,-4l0 0 0 0 0 0c6,-7 10,-15 11,-21 0,-1 1,-2 1,-4 0,-1 0,-2 0,-3l0 -2 -2 0c-5,0 -12,4 -18,9 -1,2 -2,3 -4,4 -6,6 -11,14 -14,23 0,1 0,1 -1,2l-6 -41 3 -2c4,-2 10,-5 15,-10 1,-1 2,-2 3,-3 1,-1 2,-2 3,-3l0 0 0 -1 0 0c5,-6 9,-14 11,-20 0,-1 0,-2 0,-3 0,-2 0,-3 0,-4l0 0 0 0 0 -2 -2 0c-5,1 -11,4 -17,10 -1,1 -2,2 -3,3 -1,1 -3,3 -4,4l0 0 0 0 0 0c-5,6 -8,13 -10,19 0,0 0,1 0,2l-6 -41 0 0 2 -3c5,-1 10,-5 15,-10 1,-1 1,-2 2,-3l0 0c1,-1 2,-2 3,-3l0 0 0 0 0 0c5,-7 9,-14 10,-20l0 0c0,-1 0,-2 1,-3 0,-1 0,-2 -1,-3l0 0 0 -2 -2 0c-4,0 -10,4 -16,9 -1,1 -2,2 -3,3 -1,2 -2,3 -3,4l0 0 0 0c-5,6 -8,13 -9,18 -1,1 -1,2 -1,3l-6 -42 3 -3c4,-1 9,-5 13,-9 1,-1 2,-2 3,-3 1,-1 2,-2 3,-4l0 0c4,-6 7,-13 8,-19 1,-1 1,-2 1,-3 0,-1 0,-2 0,-3l0 0 0 0 -1 -2 -1 0c-5,1 -10,4 -16,10 -1,1 -2,2 -3,3 -1,1 -1,2 -2,3l0 0c0,0 0,0 0,0l0 0c-5,6 -7,12 -9,17 0,1 0,2 0,3 -1,1 -1,1 -1,2l-6 -42 1 -2 2 -3c4,-1 9,-4 13,-9 1,-1 2,-2 3,-3 1,-1 1,-2 2,-3 0,0 7,-9 9,-19 0,-1 0,-2 0,-3 0,-1 0,-2 0,-3l0 -2 -2 1c-5,0 -10,4 -15,9 -1,1 -2,2 -3,3 -1,1 -2,2 -3,4l0 0 0 0c-4,5 -6,11 -8,16 0,1 0,2 0,3 0,1 0,2 0,2l-6 -37c2,-5 4,-11 4,-18 0,-2 0,-3 0,-5 -1,-12 -4,-26 -15,-34 -7,9 -7,20 -6,32l0 0c0,0 0,0 0,0l0 0c1,8 4,18 10,25l4 32c-1,-5 -4,-10 -8,-15 -1,-1 -2,-2 -3,-3 -1,-1 -2,-2 -3,-3l0 0c-6,-5 -13,-9 -19,-11 -1,0 -2,0 -3,0 -2,0 -4,-1 -5,-1 0,8 3,14 8,19 2,3 4,5 7,7 5,5 13,10 20,11 1,1 2,1 3,1l4 3 1 0 6 43c-2,-7 -7,-13 -12,-17 -6,-7 -14,-12 -23,-14 -3,-1 -6,-1 -9,-1 1,8 5,14 10,19 2,3 4,5 7,7l0 0 0 0 0 0c6,5 13,10 21,11l0 0c1,0 2,0 2,0l5 3 0 1 7 42c-2,-4 -5,-9 -10,-14 -1,-1 -2,-2 -3,-3 -1,-1 -2,-2 -3,-3l0 0 0 0 0 0c-7,-6 -15,-9 -21,-11 -1,0 -2,0 -3,0 -2,0 -3,0 -4,0l-2 0c1,8 5,14 10,19l0 0c1,2 3,3 4,4 6,6 14,11 22,13 1,0 2,1 3,1 1,0 2,0 3,0l5 3 0 0 7 43c-2,-5 -5,-10 -10,-15 -2,-1 -3,-2 -4,-3 -1,-1 -2,-2 -4,-3l0 0c0,0 0,0 0,0l0 0c0,0 0,0 0,0l0 0c0,0 0,0 0,0l0 0 0 0c0,0 0,0 0,0l0 0 0 0c0,0 0,0 0,0l0 0c0,0 0,0 0,0l0 0c-7,-5 -15,-9 -21,-10 -1,0 -2,0 -4,-1 -1,0 -2,0 -3,1l-2 0 0 2c1,5 5,11 11,17 1,1 2,3 3,4 2,1 3,2 4,3l0 0 1 0 0 0c6,5 13,8 19,10 1,0 2,0 3,0 1,1 2,1 3,1l0 0c0,0 0,0 0,0l5 2 0 0 1 7 0 1 0 0 5 35c-1,-4 -5,-10 -10,-14 -1,-2 -3,-3 -4,-4 -1,-1 -2,-2 -4,-3l0 0 0 0 0 0c-7,-5 -15,-8 -22,-9 -1,-1 -3,-1 -4,-1 -1,0 -2,0 -3,0l-2 1 0 2c1,5 5,11 11,17 2,1 3,3 4,4 2,1 3,2 4,3l0 0 0 0 0 0c7,5 14,8 21,9 1,1 2,1 3,1 1,0 2,0 3,0l5 3 6 43c-2,-5 -6,-10 -11,-15 -1,-1 -3,-2 -4,-3 -1,-1 -3,-2 -4,-3l0 0c0,0 0,0 0,0l0 0c-8,-6 -16,-9 -23,-10l0 0c-1,0 -3,0 -4,0 -1,0 -2,0 -3,0l0 0 -2 0 0 2c1,6 5,12 12,18 1,2 3,3 4,4l0 0c1,1 3,2 4,3l0 0 0 0 0 0c8,5 15,8 21,9 2,0 3,1 4,1 1,0 2,0 3,0l5 2 6 43c-2,-5 -6,-10 -12,-15l0 0c-1,-1 -3,-2 -4,-3 -1,-1 -3,-2 -4,-3l0 0 0 0 0 0c-9,-5 -17,-8 -24,-9 -1,0 -3,-1 -4,-1 -1,1 -2,1 -4,1l-2 0 1 2c1,6 6,12 13,18 1,1 2,3 4,4l0 0c1,1 3,2 4,3l0 0 0 0 0 0c8,5 16,8 22,9 1,0 3,0 4,0 1,0 2,1 3,0l4 3 7 43c-2,-5 -7,-11 -13,-16 -9,-7 -21,-14 -33,-15 -1,0 -3,0 -4,0 -1,0 -3,0 -4,1 -1,0 -1,0 -2,0l1 2c1,6 6,12 13,18 3,3 6,5 9,7l0 0 0 0 0 0 0 0 0 0 0 0c0,0 0,0 0,0 0,0 0,0 0,0l0 0 0 0c0,0 0,0 0,0 0,0 0,0 0,0 0,0 0,0 0,0 8,5 16,8 23,9l0 0c1,0 2,0 4,0 1,0 2,0 3,0l4 2 3 18c4,26 20,38 57,30 0,1 0,3 0,4l0 0 0 0c0,2 1,5 2,8 0,0 1,1 2,2 -2,2 -2,5 -2,7l0 0 0 0c0,3 1,6 2,8 0,1 1,2 2,3 -2,2 -2,5 -2,7l0 0 0 0c0,2 1,5 2,8 0,1 1,1 1,2 -1,2 -1,5 -1,7l0 0 0 0c0,3 0,6 2,8 1,3 3,5 6,5l0 0 12 0 0 0c3,0 5,-2 6,-5 2,-2 2,-5 2,-8l0 0 0 0c0,-2 0,-5 -1,-7 0,-1 1,-1 1,-2 1,-3 2,-6 2,-8l0 0 0 0c0,-2 0,-5 -2,-7 1,-1 2,-2 2,-3 1,-2 2,-5 2,-8l0 0 0 0c0,-2 0,-5 -2,-7 1,-1 2,-2 2,-2 1,-3 2,-6 2,-8l0 0 0 0c0,-1 0,-3 0,-4 37,8 53,-4 57,-30l1 -8c7,0 13,-2 17,-5 1,-1 2,-2 3,-3 1,-1 1,-2 2,-3 2,-1 4,-2 6,-4l0 0c0,0 1,-1 1,-1 2,-2 3,-5 4,-6l0 -1c0,-2 0,-3 0,-4 -1,0 -1,0 -1,0l0 -3 -1 0c-2,-4 -5,-8 -9,-12 -1,0 -2,-1 -3,-1 0,-1 -1,-1 -2,-2 -1,-2 -2,-3 -4,-5 4,-1 8,-2 11,-5 1,0 2,-1 3,-2 0,-1 1,-2 2,-3 2,-1 4,-2 6,-4l0 0c0,0 0,0 1,-1 1,-2 3,-4 3,-6l0 0c0,-3 0,-3 0,-4 0,-1 0,-1 0,-1l-1 -3 -1 1c-1,-4 -4,-8 -8,-12 -1,0 -2,-1 -3,-2 -1,0 -1,-1 -2,-1 -1,-2 -2,-3 -3,-4 3,-1 7,-3 9,-5 1,0 2,-1 3,-2 1,-1 1,-2 2,-3 2,-1 4,-2 6,-4 0,0 0,0 1,-1 2,-2 3,-4 3,-6l0 0c0,-3 0,-3 0,-4 0,0 0,0 0,-1l-1 -2 -1 0c-1,-4 -4,-8 -8,-11 -1,-1 -2,-1 -2,-2 -1,0 -2,-1 -3,-1 0,-1 -1,-3 -2,-4 3,-1 6,-2 9,-4 1,-1 2,-2 2,-3 1,0 2,-1 2,-2 2,-1 4,-2 6,-4 0,0 0,0 1,-1 1,-2 3,-4 3,-6l0 0c0,-2 0,-3 0,-4l0 0c0,0 0,0 0,-1l-1 -2 -1 0c-1,-4 -4,-7 -8,-10 -1,-1 -1,-2 -2,-2 -1,-1 -2,-1 -2,-1 -1,-2 -2,-3 -3,-4 3,-1 6,-2 9,-4 1,-1 1,-1 2,-2 1,-1 1,-2 2,-2 2,-1 4,-3 5,-4 1,-1 1,-1 1,-1 2,-2 3,-5 3,-6l0 0c1,-3 1,-3 0,-4 0,0 0,0 0,-1l0 -2 -1 0c-2,-4 -4,-7 -8,-10 -1,-1 -2,-1 -2,-2 -1,0 -2,-1 -2,-1 -1,-1 -2,-2 -3,-3 3,-1 6,-2 8,-4 1,-1 2,-1 3,-2 1,-1 1,-2 2,-2 2,-1 3,-3 5,-4 0,0 0,-1 1,-1 1,-2 3,-4 3,-6l0 0c0,-2 0,-3 0,-4 0,0 0,0 0,0l-1 -3 -1 1c-1,-4 -4,-7 -7,-10 -1,-1 -2,-1 -3,-2 0,0 -1,-1 -2,-1 0,-1 -1,-2 -2,-3 3,-1 6,-2 8,-4 1,0 2,-1 2,-2 1,0 2,-1 2,-2 2,-1 4,-2 5,-4 0,0 1,0 1,0l0 0c2,-2 3,-4 3,-6l0 0c0,-2 0,-3 0,-4 0,0 0,0 0,0l-1 -3 -1 1c-1,-4 -4,-7 -7,-10 -1,-1 -1,-1 -2,-2 -1,0 -1,0 -2,-1 -1,-1 -1,-2 -2,-2 3,-1 5,-2 7,-4 1,-1 2,-1 3,-2 0,-1 1,-1 1,-2 2,-1 4,-2 5,-4 0,0 1,0 1,0 2,-2 3,-4 3,-6l0 0c0,-2 0,-3 0,-4 0,0 0,0 0,0l-1 -3 -1 1c-1,-4 -4,-7 -7,-9 0,-1 -1,-1 -2,-2 0,0 -1,-1 -2,-1 0,-1 -1,-2 -1,-3 2,0 4,-1 6,-3 1,-1 2,-1 3,-2 0,-1 1,-1 1,-2 2,-1 4,-2 5,-3l0 0c0,-1 1,-1 1,-1 1,-2 2,-4 3,-6l0 0c0,-2 0,-2 0,-3 0,0 0,0 -1,-1l0 -2 -1 0c-1,-3 -4,-6 -7,-9 0,0 -1,-1 -2,-1 0,0 -1,-1 -1,-1 -1,-1 -2,-2 -2,-3 2,0 5,-1 6,-3 1,0 2,-1 3,-2 0,0 1,-1 1,-2 2,-1 3,-2 5,-3l0 0c0,0 0,0 0,-1 2,-2 3,-3 3,-5l0 0c1,-2 0,-2 0,-3l0 0c0,0 0,-1 0,-1l0 -2 -1 0c-2,-3 -4,-6 -7,-9 0,0 -1,-1 -2,-1 0,0 -1,-1 -1,-1 -1,-1 -2,-3 -4,-4 0,0 0,0 0,-1 0,0 0,0 -1,0 4,-3 7,-9 8,-16 1,-11 -2,-21 -7,-24 -7,1 -13,10 -14,21 -1,6 0,13 2,18 -1,0 -2,0 -3,1 0,0 -1,1 -1,1 -1,0 -1,1 -1,1zm-277 -14c0,0 0,0 0,0l0 0c0,0 0,0 0,0zm152 -271l-2 -2 -2 2 -564 409 -2 2 1 2 215 663 1 2 3 0 696 0 3 0 1 -2 215 -663 1 -2 -2 -2 -564 -409z"/>
   <path class="fil3" d="M497 714c2,13 7,21 18,26 8,3 19,3 33,0 1,1 1,1 2,2 -1,1 -1,2 -2,3 -16,4 -28,3 -37,0 -11,-5 -17,-15 -19,-29l-63 -414c3,2 4,5 4,8 1,-1 0,-7 2,-8l62 412z"/>
   <path class="fil4" d="M628 672l6 5 7 -3 6 5 7 -3 6 5 7 -4 5 6 4 -2c1,1 1,1 1,4 -1,3 -5,9 -10,11 -5,7 -14,11 -24,10 -10,-2 -18,-9 -20,-17 -5,-4 -7,-10 -7,-13 1,-3 1,-2 2,-4l3 3 7 -3zm61 -375l4 4 6 -3 4 4 5 -2 5 4 5 -3 4 4 3 -1c0,1 1,1 0,3 0,2 -3,6 -7,8 -2,3 -6,6 -11,7 0,0 0,-1 0,-1 -2,-1 -4,-2 -6,-2l0 0c-3,-1 -5,0 -8,1 -4,-3 -7,-6 -8,-10 -3,-3 -5,-8 -5,-10 1,-2 1,-2 1,-3l3 2 5 -2zm-6 36c2,1 3,3 5,4 1,-1 3,-2 5,-3 2,2 3,3 5,4 1,0 3,-1 5,-2 2,1 3,3 5,4 1,-1 3,-2 5,-3 2,2 3,3 5,4 1,0 2,-1 3,-1 0,1 0,1 0,3 -1,3 -4,7 -8,8 -2,4 -6,7 -11,8 0,0 -1,-1 -1,-1l0 0c-2,-1 -4,-2 -6,-3l0 0c-3,0 -5,0 -8,2 -4,-3 -7,-6 -8,-11 -3,-3 -5,-7 -5,-10 0,-2 1,-2 1,-3 1,1 2,2 3,2 2,0 3,-1 5,-2zm-6 37c2,1 3,3 5,4 2,-1 3,-2 5,-2 2,1 3,2 5,4 2,-1 4,-2 6,-3 1,1 3,3 4,4 2,-1 4,-1 6,-2 2,1 3,2 5,4 1,-1 2,-1 3,-2 0,2 0,1 0,4 0,2 -4,6 -8,8 -2,4 -7,7 -11,8 -1,0 -1,-1 -1,-1 -2,-1 -4,-2 -7,-3l0 0c-2,0 -5,1 -7,2 -5,-3 -8,-7 -9,-11 -4,-3 -6,-8 -5,-10 0,-3 0,-3 1,-4 1,1 2,2 2,3 2,-1 4,-2 6,-3zm-6 38c1,2 3,3 5,5 2,-1 3,-2 5,-3 2,2 4,3 5,4 2,0 4,-1 6,-2 2,1 3,3 5,4 2,-1 4,-2 6,-3 1,2 3,3 5,5 1,-1 2,-1 3,-2 0,1 0,1 0,4 0,2 -4,7 -8,8 -3,4 -7,7 -12,8 0,0 -1,0 -1,0 -2,-2 -4,-3 -7,-3l0 0c-2,-1 -5,0 -8,1 -4,-2 -7,-6 -9,-11 -3,-3 -5,-8 -5,-11 0,-2 1,-2 1,-3 1,1 2,1 3,2 2,-1 4,-2 6,-3zm-7 40c2,2 4,3 5,5 2,-1 4,-2 6,-3 2,1 4,3 5,5 2,-1 4,-2 6,-3 2,1 4,3 5,4 2,-1 4,-2 6,-3 2,2 4,3 5,5 1,-1 3,-1 4,-2 0,1 0,1 0,4 0,2 -4,7 -9,9 -2,4 -7,7 -12,8 -1,0 -1,-1 -2,-1 0,0 0,0 -1,-1 -1,-1 -3,-1 -5,-1l0 0c-2,-1 -5,0 -8,1 -5,-3 -8,-7 -9,-12 -4,-3 -6,-8 -6,-11 1,-2 1,-2 1,-3 1,1 2,1 3,2 2,-1 4,-2 6,-3zm-6 42c1,1 3,3 5,4 2,-1 4,-2 6,-3 2,2 3,3 5,5 2,-1 4,-2 6,-3 2,2 4,3 5,5 3,-1 5,-2 7,-3 1,1 3,3 5,4 1,0 2,-1 3,-1 1,1 1,1 1,4 -1,2 -4,7 -9,9 -3,4 -8,7 -14,9 0,-1 0,-1 -1,-1 0,-1 -1,-1 -1,-1l0 0c-2,-1 -3,-2 -5,-2l0 0c-3,0 -5,0 -8,1 -5,-2 -9,-7 -10,-12 -4,-3 -6,-9 -6,-11 1,-3 1,-3 1,-4 1,1 2,2 3,3 2,-1 4,-2 7,-3zm-7 42c1,2 3,4 5,5 2,-1 4,-2 6,-3 2,2 4,3 6,5 2,-1 4,-2 6,-3 2,2 4,3 5,5 3,-1 5,-2 7,-3 2,1 3,3 5,5 1,-1 3,-2 4,-2 0,1 0,1 0,4 0,3 -4,7 -9,10 -3,4 -8,7 -14,8 -1,0 -1,0 -1,0 -1,-1 -1,-1 -2,-1 -1,-1 -3,-2 -5,-2l0 0c-2,0 -5,0 -7,1 -6,-3 -10,-7 -11,-12 -5,-4 -7,-10 -6,-12 0,-3 0,-3 1,-4 1,1 2,2 3,3 2,-1 4,-3 7,-4zm-8 45c2,2 4,3 6,5 2,-1 4,-2 6,-3 2,1 4,3 6,5 2,-1 4,-2 7,-3 1,1 3,3 5,5 2,-1 5,-3 7,-4 2,2 3,4 5,5 1,0 3,-1 4,-1 0,1 1,1 0,4 0,3 -4,8 -9,10 -3,5 -9,8 -15,9 0,0 -1,0 -1,0 0,-1 -1,-1 -1,-1l0 0c-2,-1 -4,-2 -5,-2l0 0c-3,0 -6,0 -8,1 -6,-3 -10,-8 -12,-13 -4,-4 -6,-10 -6,-13 1,-3 1,-2 2,-4 1,1 2,2 3,3 2,-1 4,-2 6,-3zm-7 46c2,2 4,4 5,6 3,-2 5,-3 7,-4 2,2 4,4 6,5 2,-1 5,-2 7,-3 2,2 4,4 5,5 3,-1 5,-2 7,-3 2,2 4,3 6,5 1,0 3,-1 4,-2 0,2 0,2 0,4 0,3 -4,9 -10,11 -3,5 -9,9 -16,9 0,0 -1,0 -1,0 -2,-1 -4,-2 -6,-2l0 0c-2,-1 -4,0 -7,0 -6,-2 -11,-8 -12,-14 -5,-3 -7,-9 -7,-12 1,-3 1,-3 2,-4 1,1 2,2 3,3 2,-1 5,-3 7,-4z"/>
   <path class="fil5" d="M639 714l1 -7c1,0 3,1 4,1 1,0 1,0 1,0l-1 8c-2,14 -8,24 -19,29 -9,3 -21,4 -37,0 -1,-1 -1,-2 -2,-3 1,-1 1,-1 2,-2 14,3 25,3 33,0 11,-5 16,-13 18,-26z"/>
   <path class="fil6" d="M775 861c18,13 30,22 41,28 6,3 7,8 1,13 -8,4 -20,6 -27,3 -2,0 -3,-1 -4,-2 0,1 2,3 5,4 5,2 14,1 21,-1 -11,9 -21,30 -22,42 0,2 0,3 0,4 2,4 3,8 1,11 -3,2 -8,2 -13,0 0,-1 -1,-1 -2,-2 -1,0 -2,-1 -3,-2 0,0 0,0 0,0 -6,-5 -12,-12 -16,-14 -21,-12 -43,-24 -78,-28 -32,-4 -71,-4 -111,-4 -40,0 -80,0 -111,4 -35,4 -57,16 -78,28 -4,2 -10,9 -16,14 0,0 0,0 0,0 -1,1 -2,2 -3,2 -1,1 -2,1 -2,2 -6,2 -10,2 -13,0 -2,-3 -1,-7 1,-11 0,-1 0,-2 0,-4 -1,-12 -11,-33 -22,-42 7,2 16,3 21,1 3,-1 4,-3 5,-4 -1,1 -2,2 -4,2 -7,3 -19,1 -27,-3 -6,-5 -5,-10 1,-13 11,-6 23,-15 41,-28 1,0 3,0 5,0 1,0 1,0 1,0 -21,16 -32,24 -40,30 7,1 29,-3 35,-5 23,-7 59,-18 78,-27 1,1 1,1 1,1 1,1 2,1 3,2 4,2 9,2 13,-1 3,-3 7,-5 10,-6 4,-2 7,-3 11,-5 5,-1 9,-2 13,-3 4,0 9,-1 13,-2l0 0c0,0 0,0 0,0l0 0c0,0 0,1 0,0l0 0c0,0 0,0 0,0l0 0c0,0 0,0 0,0l0 0c1,0 2,0 4,0 2,0 3,0 4,0 7,-1 13,-1 19,-1l73 0 1 0c4,0 8,0 13,0 1,1 1,1 2,1 4,0 8,0 12,0 4,1 9,2 13,2 4,1 8,2 13,3 3,2 7,3 11,5 3,1 7,3 10,6l0 0 0 0 0 0c1,0 1,1 2,1 1,0 2,1 3,1 4,1 9,-1 12,-4 19,9 55,20 78,27 6,2 28,6 35,5 -8,-6 -19,-14 -40,-30 0,0 0,0 1,0 2,0 4,0 5,0zm352 -445l-559 -407 -559 407 213 657 692 0 213 -657zm-20 6l-539 -391 -539 391 206 633 666 0 206 -633zm-539 -374l522 380 -199 614 -646 0 -199 -614 522 -380zm2 -25l543 395 2 1 -1 3 -207 638 -1 3 -2 0 -672 0 -2 0 -1 -3 -207 -638 -1 -3 2 -1 543 -395 2 -1 2 1zm141 224c5,3 8,11 7,21 -2,7 -5,13 -9,16 -2,-1 -4,-2 -7,-1 -3,-4 -4,-11 -3,-18 1,-10 7,-17 12,-18zm-74 414c4,-4 8,-6 13,-5 5,0 9,4 12,9 6,3 11,9 13,15l-2 1 -6 -5 -7 3 -6 -5 -7 3 -6 -5 -7 3 -6 -5 -7 4 -2 -2c4,-6 10,-10 18,-11zm59 -372c2,-3 6,-5 10,-4 3,0 6,3 8,6 5,3 9,7 10,12l-2 1 -4 -4 -5 2 -5 -4 -5 3 -4 -4 -5 3 -5 -4 -5 2 -2 -1c3,-4 8,-7 14,-8zm-6 35c3,-2 7,-4 10,-3 4,0 7,3 9,6 5,3 9,7 11,12 -1,1 -2,1 -2,1 -2,-1 -3,-3 -5,-4 -2,1 -3,2 -5,3 -2,-2 -3,-3 -5,-4 -2,0 -3,1 -5,2 -2,-1 -3,-3 -5,-4 -2,1 -3,2 -5,3 -2,-2 -3,-3 -5,-4 -1,1 -3,1 -5,2 -1,0 -1,-1 -2,-1 3,-4 8,-7 14,-9zm-6 37c3,-3 7,-4 11,-4 4,1 7,4 9,7 5,3 9,8 11,13 -1,0 -1,0 -2,1 -2,-2 -3,-3 -5,-5 -2,1 -4,2 -5,3 -2,-1 -4,-3 -5,-4 -2,1 -4,2 -6,3 -1,-2 -3,-3 -4,-5 -2,1 -4,2 -6,3 -2,-1 -3,-3 -5,-4 -2,1 -4,2 -5,3 -1,-1 -2,-1 -2,-2 3,-4 8,-7 14,-9zm-6 39c3,-4 7,-5 11,-5 4,1 7,4 10,8 5,3 9,7 11,13 -1,0 -1,0 -2,1 -2,-2 -3,-3 -5,-5 -2,1 -4,2 -6,3 -2,-1 -3,-3 -5,-4 -2,0 -4,1 -6,2 -1,-1 -3,-3 -4,-4 -2,1 -4,2 -6,3 -2,-2 -3,-3 -5,-5 -2,1 -4,2 -6,3 -1,0 -1,-1 -2,-1 4,-5 9,-8 15,-9zm-6 39c3,-3 7,-5 11,-4 4,0 8,3 10,7 6,3 10,8 12,14 -1,0 -2,0 -2,1 -2,-2 -4,-3 -5,-5 -2,1 -4,2 -7,3 -1,-1 -3,-3 -4,-5 -3,1 -5,2 -7,3 -1,-1 -3,-3 -5,-4 -2,1 -4,2 -6,3 -1,-2 -3,-3 -5,-5 -2,1 -4,2 -6,3 0,0 -1,-1 -2,-2 4,-4 9,-8 16,-9zm-7 41c4,-3 8,-5 12,-4 4,0 8,3 10,7 6,4 10,9 12,14 0,1 -1,1 -2,1 -2,-1 -3,-3 -5,-4 -2,1 -4,2 -6,3 -2,-2 -4,-4 -5,-5 -3,1 -5,2 -7,3 -1,-2 -3,-3 -5,-5 -2,1 -4,2 -6,3 -2,-1 -4,-3 -5,-5 -2,1 -5,2 -7,3 0,0 -1,-1 -2,-1 4,-5 10,-8 16,-10zm-7 43c4,-4 8,-6 13,-5 4,1 8,4 10,8 6,3 11,8 13,14 -1,1 -2,1 -3,1 -1,-1 -3,-3 -5,-5 -2,2 -4,3 -6,4 -2,-2 -4,-4 -6,-5 -2,1 -4,2 -6,3 -2,-2 -4,-3 -5,-5 -3,1 -5,2 -7,3 -2,-2 -4,-3 -5,-5 -2,1 -5,2 -7,3 0,0 -1,-1 -2,-1 4,-5 10,-9 16,-10zm-7 44c4,-4 9,-6 13,-5 5,1 8,4 11,8 6,4 11,9 13,15 -1,0 -2,1 -3,1 -1,-2 -3,-3 -5,-5 -2,1 -4,2 -7,3 -2,-1 -3,-3 -5,-5 -2,1 -5,2 -7,4 -2,-2 -4,-4 -5,-6 -3,2 -5,3 -7,4 -2,-2 -4,-4 -5,-5 -3,1 -5,2 -7,3 -1,-1 -2,-1 -2,-2 3,-5 9,-9 16,-10zm-7 46c4,-4 9,-6 13,-5 5,1 9,4 11,8 7,4 12,9 14,15 -1,1 -2,1 -3,2 -2,-2 -4,-4 -5,-5 -3,1 -5,2 -7,3 -2,-2 -4,-4 -6,-5 -2,1 -5,2 -7,3 -2,-2 -4,-3 -5,-5 -3,1 -5,2 -7,3 -2,-2 -4,-3 -6,-5 -2,1 -5,2 -7,3 -1,0 -1,-1 -2,-2 4,-5 10,-9 17,-10zm-271 315l-13 -23 5 -3 17 10 -8 -15 4 -2 13 22 -5 3 -17 -10 8 15 -4 3zm356 -11l1 -2c1,1 2,1 3,2 1,0 2,0 3,0 0,0 0,-1 1,-1 0,0 0,-1 -1,-1 0,-1 0,-1 -1,-1 -1,0 -1,-1 -2,-1l1 -1c0,0 1,0 1,0 0,0 0,0 0,0 -2,-1 -4,-3 -5,-5 -1,-3 -1,-7 0,-11 2,-4 4,-7 7,-8 3,-2 6,-2 9,0 3,1 5,2 7,5 0,1 1,3 1,5l-6 0c0,-2 0,-3 0,-4 -1,-1 -2,-2 -3,-2 -2,-1 -4,-1 -6,0 -1,1 -3,3 -4,6 -1,3 -1,5 0,7 0,2 2,3 3,4 2,0 3,0 4,-1 1,0 3,-1 4,-3l4 4c-2,2 -4,4 -6,4 -2,1 -4,1 -6,0 0,0 0,0 0,0 1,1 1,1 2,2 0,0 0,1 0,2 -1,1 -1,2 -2,2 -2,1 -3,0 -5,0 -2,-1 -3,-1 -4,-2zm-311 -10l-5 2 -4 -4 -10 3 0 7 -6 1 1 -28 5 -1 19 20zm-13 -6l-6 -8 0 11 6 -3zm25 -6l-1 -5 11 -3 3 10c-1,2 -2,3 -4,4 -2,2 -4,3 -6,3 -3,1 -5,1 -7,0 -3,0 -5,-1 -6,-3 -2,-2 -3,-4 -3,-6 -1,-3 -1,-6 -1,-8 1,-2 2,-4 4,-6 1,-1 3,-2 6,-3 3,-1 5,-1 8,0 2,1 3,3 4,5l-4 2c-1,-1 -2,-2 -3,-2 -1,-1 -3,-1 -4,0 -2,0 -4,1 -5,3 -1,2 -1,4 0,7 1,3 2,5 4,6 1,1 3,2 5,1 2,0 3,-1 3,-2 1,0 2,-1 3,-2l-1 -3 -6 2zm42 1l-6 1 -3 -6 -11 2 -1 7 -5 1 5 -28 5 -1 16 24zm-12 -9l-5 -8 -2 10 7 -2zm15 9l-4 -26 11 -2c3,0 5,0 6,0 1,0 2,1 3,2 1,1 2,3 2,4 0,2 0,4 -1,5 -1,2 -3,3 -5,3 1,1 3,1 3,2 1,1 2,2 4,4l4 4 -6 1 -5 -5c-2,-2 -3,-3 -3,-3 -1,-1 -1,-1 -2,-1 -1,0 -1,0 -3,0l-1 0 2 11 -5 1zm3 -16l4 -1c2,0 4,0 4,-1 1,0 1,0 2,-1 0,0 0,-1 0,-2 0,-1 -1,-1 -1,-2 -1,0 -1,-1 -2,-1 -1,0 -2,1 -4,1l-4 0 1 7zm46 10l-6 1 -3 -6 -10 1 -2 6 -5 1 8 -27 5 -1 13 25zm-11 -9l-4 -9 -3 10 7 -1zm22 -17l9 -1c2,0 4,0 5,1 2,0 3,1 4,2 1,1 2,2 3,4 1,2 1,4 1,6 0,2 0,4 -1,6 0,2 -1,3 -2,4 -1,1 -2,2 -4,3 -1,0 -3,0 -4,0l-10 1 -1 -26zm5 4l1 17 4 0c1,0 2,0 3,0 1,-1 1,-1 2,-1 0,-1 1,-2 1,-3 1,-1 1,-3 1,-5 -1,-2 -1,-3 -1,-4 -1,-2 -1,-2 -2,-3 0,-1 -1,-1 -2,-1 -1,0 -2,0 -5,0l-2 0zm45 21l-5 0 -2 -6 -11 0 -2 6 -6 0 11 -26 5 0 10 26zm-9 -10l-3 -10 -4 10 7 0zm12 10l1 -26 5 0 10 18 1 -17 5 0 -1 26 -5 0 -10 -18 -1 17 -5 0zm50 3l-6 0 -1 -6 -11 -1 -2 5 -6 0 12 -25 6 0 8 27zm-9 -11l-2 -10 -5 9 7 1zm20 12l4 -26 11 2c3,0 5,1 6,1 1,1 2,2 2,3 1,2 1,3 1,4 0,2 -1,4 -2,5 -2,1 -3,2 -6,2 1,1 2,1 3,2 0,1 1,3 2,5l3 5 -7 0 -3 -7c-1,-2 -1,-3 -2,-4 0,0 -1,-1 -1,-1 -1,0 -2,-1 -3,-1l-1 0 -1 11 -6 -1zm8 -14l3 0c3,1 5,1 5,1 1,0 1,-1 2,-1 0,-1 1,-1 1,-2 0,-1 0,-2 -1,-2 0,-1 -1,-1 -2,-1 0,-1 -1,-1 -3,-1l-4 -1 -1 7zm42 22l-6 -1 -1 -6 -10 -2 -4 5 -5 -1 15 -23 6 1 5 27zm-8 -12l-1 -10 -6 9 7 1zm11 13l6 -25 5 1 -3 11 14 -8 7 2 -13 7 6 18 -6 -2 -4 -14 -5 4 -2 7 -5 -1zm70 27l-5 -3 1 -6 -9 -5 -5 4 -5 -3 22 -18 5 3 -4 28zm-3 -14l1 -10 -7 7 6 3z"/>
  </g>
 </g>
</svg>
